<?xml version="1.0" encoding="UTF-8" standalone="no"?><!DOCTYPE svg PUBLIC "-//W3C//DTD SVG 1.1//EN" "http://www.w3.org/Graphics/SVG/1.1/DTD/svg11.dtd"><svg width="100%" height="100%" viewBox="0 0 82 118" version="1.1" xmlns="http://www.w3.org/2000/svg" xmlns:xlink="http://www.w3.org/1999/xlink" xml:space="preserve" style="fill-rule:evenodd;clip-rule:evenodd;stroke-miterlimit:10;"><path d="M52.23,15.13l0.33,0.26l0.17,0.33l0.33,0.17l-0.08,0.33l0.08,0.33l0,0.33l0.17,0.34l0.17,0.33l-0.09,0.33l0.16,0.33l-0.07,0.34l0.16,0.33l0.25,0.33l0.33,0l0.33,0.17l0.33,0.24l0.17,0.33l0.09,0.33l-0.33,0.26l-0.26,0.33l-0.33,0.33l-0.33,0.34l-0.41,0.33l-0.34,0.17l-0.25,0.33l-0.33,0.24l-0.25,0.33l0,0.34l-0.16,0.33l-0.26,0.33l-0.33,0.33l-0.25,0.34l0.34,0l0.83,-0.25l0.33,-0.09l0.17,-0.33l0,-0.33l0.33,-0.17l0.24,0.34l0.26,0.33l0.08,-0.33l-0.25,-0.34l0.08,-0.33l0.26,-0.33l0.33,-0.17l0.66,0l0.34,0.09l0.33,0l0.33,-0.09l0.33,-0.08l0.34,-0.16l0.33,0l0.33,0.08l0.5,0.33l-0.26,0.33l-0.07,0.33l-0.09,0.34l-0.17,0.33l-0.24,0.33l-0.33,0.33l-0.34,0.09l-0.33,-0.09l-0.33,0.26l-0.33,0.16l-0.34,-0.08l-0.33,-0.08l-0.33,0.08l-0.33,0.08l-0.34,0l-0.33,0l-0.33,-0.16l-0.42,-0.09l-0.34,0.17l0,0.33l0.42,-0.25l0.34,0.17l0.33,0.08l0.33,0.09l0.34,0l0.33,-0.17l0.33,0.08l0.33,0l0.34,0.09l0.33,0l0.33,-0.17l0.08,0.33l0.33,-0.25l0.09,-0.33l0.33,-0.08l0.33,-0.26l0.34,0l0.07,-0.33l0.26,-0.33l0.17,-0.33l0.24,-0.34l0.33,-0.16l0.33,0.16l0.34,0.09l0.33,0.25l0.66,0.16l0.34,0.26l0.33,0.16l0.42,0.17l0.41,0.17l0.33,-0.09l0.34,0.16l0.33,0.26l0.09,0.33l0.33,-0.17l0.33,0.08l0.33,0.26l0.25,0.33l0,0.33l-0.08,0.33l0.08,0.34l-0.08,0.41l0,0.33l-0.25,0.33l0.33,0.09l0.25,-0.33l0.08,-0.33l0.09,-0.34l0.33,-0.09l0.25,0.34l0.42,-0.08l0.16,-0.33l0.17,-0.34l0.66,0.34l0.34,0.24l0.33,0.17l0.33,0.09l0.33,0.33l0.34,0.08l0.33,-0.25l0.33,0.17l0.33,0.16l0.34,0.25l0.33,-0.17l0.33,0.09l0.25,0.33l0.33,-0.16l0.33,-0.17l0.33,0l0.42,0.24l0.34,0.26l0.33,0l0.33,0.24l0.33,0.26l0.5,0.66l0.34,0.17l0.33,0.16l0.16,0.34l0.25,0.33l0.16,0.33l0.34,0.33l0.66,0.34l0.34,0.24l0.33,0.17l0.33,0.33l0.09,0.33l0.5,-0.08l0.41,0.17l0.33,0.08l0.33,0.09l0.34,0.66l-0.08,0.33l0,0.34l0.16,0.33l0.17,0.33l0,0.33l0.08,0.34l0,0.66l-0.08,0.33l-0.09,0.34l0.09,0.33l0,0.33l-0.17,0.33l-0.16,0.34l0,0.33l-0.09,0.33l-0.08,0.33l-0.16,0.34l-0.26,0.32l-0.24,0.33l-0.34,0.09l-0.33,0l0.17,0.33l-0.17,0.33l-0.25,0.34l-0.25,0.33l-0.33,0.24l-0.33,0.26l-0.34,0l-0.25,0.33l-0.33,0.24l-0.17,0.34l-0.17,0.33l-0.16,0.34l-0.17,0.33l-0.57,0.5l-0.26,0.34l-0.33,0.16l-0.41,-0.09l-0.33,-0.16l-0.09,0.33l0,0.33l-0.08,0.33l-0.26,0.34l-0.24,0.33l-0.09,0.33l0.09,0.33l0.33,-0.16l0,0.66l-0.33,0.26l-0.17,0.33l0.17,0.33l0,0.67l0.08,0.33l0,0.33l-0.08,0.33l0,0.34l-0.17,0.33l-0.08,0.33l-0.17,0.33l-0.08,0.34l-0.25,0.33l-0.08,0.33l-0.09,0.33l-0.08,0.34l0,0.33l-0.25,0.33l-0.25,0.33l-0.16,0.34l-0.09,0.33l0,0.33l-0.08,0.33l0,0.34l-0.09,0.33l-0.16,0.33l-0.34,0.17l-0.33,0.57l-0.33,0.26l-0.08,0.33l0,0.33l-0.33,0.08l-0.33,0.33l-0.34,0.09l0,0.33l-0.25,0.34l-0.24,0.33l0,1l-0.34,0.33l-0.33,0.17l-0.33,0.07l-0.33,0.26l0,0.33l-0.34,0.17l-0.33,-0.09l-0.33,0l-0.33,0l-0.34,0l-0.33,-0.08l-0.33,0.08l-0.33,0.09l-0.34,-0.26l-0.33,0.09l-0.33,0.17l-0.33,0l-0.34,0.24l-0.33,0.26l-0.33,0.07l-0.33,0.26l-0.17,0.33l-0.33,0l-0.5,0l-0.33,0.17l-0.34,0.16l-0.33,0l-0.33,0.08l-0.33,0.17l-0.34,0.25l-0.25,0.33l-0.33,0.25l-0.34,0.25l-0.24,0.33l-0.17,0.34l-0.33,0.16l-0.33,-0.09l-0.26,0.34l0,0.33l-0.07,0.33l-0.09,0.33l0,0.34l0.09,0.33l0.07,0.33l-0.07,0.58l0,0.33l-0.34,0l0,0.67l0.17,0.33l0.17,0.59l-0.17,0.33l-0.26,0.33l-0.33,0.08l-0.66,0.09l-0.25,0.33l-0.25,0.33l-0.33,0.26l-0.08,0.33l-0.17,0.33l-0.17,0.33l-0.16,0.34l-0.09,0.33l-0.17,0.33l-0.07,0.33l-0.17,0.34l-0.33,0.33l-0.34,0.24l-0.25,0.33l-0.33,0.25l-0.34,0.25l-0.33,0.17l-0.16,-0.33l0.33,-0.09l0.33,-0.25l0.26,-0.33l0,-0.33l0.24,-0.33l0.33,-0.17l0.17,-0.33l0.09,-0.41l0,-0.33l-0.34,0l-0.33,-0.17l0,0.33l0.08,0.33l-0.08,0.34l-0.33,0.24l-0.09,0.33l-0.33,0.26l-0.25,0.33l-0.33,0.32l-0.25,0.33l0,1.33l-0.17,0.34l-0.08,0.33l-0.16,0.33l-0.26,0.33l-0.33,0.17l-0.33,0.09l-0.34,-0.09l-0.07,-0.33l0.16,-0.33l0.34,-0.34l0.33,-0.24l0.33,-0.33l0.08,-0.34l0,-0.33l-0.33,0.08l-0.25,0.33l-0.25,0.33l-0.08,0.09l-0.33,-0.33l-0.26,-0.33l-0.24,-0.33l-0.26,-0.34l-0.33,-0.24l-0.33,-0.26l-0.33,-0.16l-0.34,-0.25l-0.33,-0.25l-0.17,-0.33l-0.24,-0.34l-0.33,0.09l-0.33,-0.16l-0.26,-0.34l-0.33,-0.33l-0.33,-0.25l-0.17,-0.34l-0.33,0l-0.34,0.17l-0.33,0.09l-0.41,0.08l0.25,-0.34l0.25,-0.33l0.24,-0.33l0.26,-0.33l0.24,-0.33l0.34,-0.34l0.25,-0.33l0.33,-0.33l0.25,-0.33l0.16,-0.34l0.34,-0.33l0.33,-0.17l0.33,-0.07l0.33,-0.17l0.17,-0.33l0.33,-0.17l0.33,-0.25l0.34,-0.17l0.33,0l0.33,-0.24l0.26,-0.34l0,-0.33l0.07,-0.33l0,-0.33l0,-0.34l-0.16,-0.33l0,-0.33l-0.25,-0.33l-0.33,-0.09l-0.33,0.16l-0.33,0.19l0.16,-0.33l0,-0.33l0,-0.33l0,-0.34l0,-0.33l0,-0.42l0.17,-0.33l0.08,-0.34l-0.08,-0.33l-0.33,-0.08l-0.42,0l-0.34,-0.08l-0.33,-0.25l-0.08,-0.33l-0.09,-0.33l0.09,-0.33l-0.16,-0.34l-0.09,-0.33l0.09,-0.33l-0.17,-0.33l-0.33,-0.17l-0.33,-0.17l-0.34,-0.16l-0.33,0l-0.33,0.07l-0.33,0l-0.34,0l-0.33,0.17l-0.33,-0.08l-0.42,-0.16l0.09,-0.34l0.07,-0.33l0,-0.33l-0.16,-0.33l0.16,-0.34l0,-0.33l-0.16,-0.33l0,-0.33l0,-0.34l-0.17,-0.25l0.42,-0.5l-0.5,-0.41l0.08,-0.33l0.17,-0.33l0.09,-0.34l0.07,-0.33l0.17,-0.33l0.09,-0.33l0.16,-0.34l0.17,-0.33l-0.25,-0.33l-0.25,-0.33l-0.33,-0.26l-0.33,-0.33l-0.34,-0.17l-0.08,-0.33l-0.17,-0.33l0.09,-0.33l0.16,-0.34l0.17,-0.33l-0.09,-0.08l-2.99,-0.16l-0.5,-1.75l0.33,0l0.17,-0.34l0,-0.33l-0.24,-0.33l0.16,-0.33l0,-0.34l-0.25,-0.33l-0.34,-0.17l-0.33,-0.07l-0.33,-0.17l-0.33,-0.17l-0.34,0l-0.33,0.08l-0.33,0l-0.33,-0.24l-0.34,-0.33l-0.33,0l-0.33,-0.09l-0.33,-0.17l-0.34,-0.24l-0.24,-0.34l-0.33,0l-0.33,-0.16l-0.34,-0.09l-0.33,0l-0.33,0l-0.34,-0.17l-0.25,-0.33l-0.33,-0.24l-0.33,-0.17l-0.34,-0.33l-0.33,-0.26l-0.08,-0.33l0.08,-0.33l0,-0.33l-0.08,-0.34l-0.16,-0.33l-0.17,-0.33l0.17,-0.33l0.16,-0.34l0,-0.33l-0.16,-0.33l-0.34,0.09l-0.33,0l-0.33,0.08l-0.33,0l-0.34,0.08l-0.33,0.25l-0.25,0.33l-0.34,0.26l-0.33,0.07l-0.33,0.17l-0.25,0.33l-0.33,0.17l-0.33,0.09l-0.26,0.33l-0.24,0.33l-0.33,0l-0.33,-0.16l-0.34,-0.09l-0.33,0.09l-0.33,0.07l-0.27,0.07l-0.42,-0.08l-0.33,0.17l-0.33,0.16l-0.34,0l-0.33,-0.08l-0.17,-0.34l0.09,-0.33l0,-1.24l-0.09,-0.33l0,-0.34l-0.32,-0.08l-0.33,0.25l-0.33,0.17l-0.33,0.24l-0.26,0.33l-0.33,0.09l-0.33,0.08l-0.34,0l-0.24,-0.33l-0.33,-0.34l-0.35,-0.24l-0.33,-0.09l-0.33,0.09l-0.33,0l0.08,-0.33l-0.08,-0.42l-0.17,-0.34l-0.33,-0.33l-0.25,-0.33l-0.09,-0.33l-0.07,-0.33l-0.34,-0.25l-0.16,-0.33l0.16,-0.33l0.08,-0.34l0.09,-0.33l0.08,-0.33l0.16,-0.33l0.43,-0.17l0.33,-0.33l-0.09,-0.33l-0.08,-0.34l0,-0.33l0.17,-0.33l0.24,-0.33l0.17,-0.34l0.16,-0.33l0.26,-0.33l0.24,-0.33l0.35,-0.17l0.33,-0.17l0.33,-0.09l0.74,0l0.34,-0.33l0.33,-0.16l0.42,-0.17l0.33,0l0.32,0.17l0.34,-0.17l0.33,0l0.09,-0.17l0.41,-2.32l0.16,-2.08l0,-0.16l0.09,-0.33l0,-0.34l-0.25,-0.33l-0.25,-0.33l-0.25,-0.33l-0.33,-0.08l0,-0.33l0,-0.34l0,-0.33l0,-0.33l0.09,-0.33l0.33,0l0.33,-0.26l0.33,0.26l0.34,-0.17l-0.09,-0.33l-0.34,-0.35l-0.33,-0.16l-0.33,0.09l-0.08,-1.09l2.07,0l0.43,0.09l0.33,-0.26l0,-0.33l0.41,0.09l0.33,-0.17l0.33,-0.08l0.34,0l0.16,0.16l0.17,0.33l0.17,0.34l0.33,0.33l0.25,0.33l0.34,0.17l0.07,0.33l0.34,0.09l0.33,0.16l0.33,0.17l0.33,0l0.34,-0.24l0.16,-0.35l0.33,0.26l0.26,-0.42l0.17,-0.34l0.33,-0.24l0.33,-0.25l0.33,-0.17l0.17,-0.33l0.33,-0.33l0.33,-0.08l0.34,-0.09l0.33,-0.17l-0.09,-0.33l-0.33,-0.08l-0.33,0l-0.34,0l-0.33,-0.16l0,-0.34l0.09,-0.33l-0.17,-0.33l0,-0.33l-0.09,-0.42l-0.24,-0.34l-0.33,-0.16l-0.33,-0.25l0,-0.33l0.33,0l0.33,0.08l0.33,-0.08l0.34,0.17l0.33,0.07l0.33,0.17l0.33,0.09l0.34,0.17l0.33,0.07l0.33,-0.24l0.24,-0.33l0.67,0l0.33,-0.17l0.33,0l0.34,-0.09l0.33,-0.16l0.33,-0.25l0.33,0l0.43,-0.25l0.41,-0.17l0.25,-0.33l-0.15,-0.35l0.32,-0.15l0.33,-0.17l0.33,0l0.33,0.17l0,0.59l-0.33,0.24l0,0.33l0.25,0.34l0.25,0.33l0.08,0.33l-0.08,0.33l-0.09,0.34l-0.08,0.33l0,1.33l0.17,0.33l0.08,0.33l0.09,0.34l0.16,0.33l0.34,0.16l0.33,0.09l0.41,0.25l0.34,0.08l0.33,0l0.34,-0.16l0.33,-0.17l0.33,-0.15l0.91,0l0.33,-0.35l0.34,-0.16l0.33,0l0.42,-0.09l0.08,0.09l0.33,0l0.33,0.24l0.42,-0.08l0.34,-0.25l0,-0.33l-0.34,-0.25l0.08,-0.33l0.33,0.08l0.34,0.09l0.33,-0.09l0.33,-0.17l0.33,0l0.17,0.33l0.33,0l0.18,0.27l0.33,0.08l0.42,0.16l0.34,-0.16l0.33,-0.25l0.33,0.08l0.33,-0.08l0.34,0.17l0.33,0.08l0.33,-0.25l0.83,-1.08l0.17,-0.33l0.24,-0.34l0.26,-0.41l0.24,-0.33l0.26,-0.33l-0.09,-0.33l0.25,0.06" style="fill:#fff;fill-rule:nonzero;stroke:#fff;stroke-width:0.07px;"/><path d="M25.27,18.94l0,-0.33l-0.17,-0.33l-0.24,-0.33l-0.26,-0.34l0.26,-0.33l0.24,-0.33l0.09,-0.33l-0.09,-0.34l-0.24,-0.33l-0.17,-0.33l-0.17,-0.33l-0.09,-0.34l0,-0.33l0,-0.33l0,-0.33l0,-0.34l0.17,-0.33l0.33,-0.33l-0.07,-0.33l0.07,-0.34l-0.07,-0.33l-0.34,-0.08l-0.33,0.17l-0.33,0.08l-0.5,0l-0.33,-0.08l-0.34,-0.09l-0.33,0.09l-0.33,0.17l-0.33,0l-0.26,-0.34l-0.33,-0.25l-0.33,-0.33l-0.34,-0.16l-0.32,-0.09l-0.33,-0.16l-0.33,-0.08l-0.34,-0.09l-0.42,0l-0.33,0l-0.33,-0.08l-0.33,0.08l-0.34,0.17l-0.33,0l-0.17,-0.33l-0.33,-0.25l-0.09,-0.33l0.09,-0.33l0,-0.35l-0.09,-0.33l-0.16,-0.33l-0.25,-0.33l-0.09,-0.34l-0.16,-0.33l0,-0.33l-0.33,0l-0.25,0.33l-0.33,0l0.24,-0.41l0.28,-0.33l0.06,-0.33l-0.06,-0.43l0.06,-0.33l0.16,-0.33l0.17,-0.33l0.16,-0.34l0.34,-0.32l0.16,-0.33l0.34,-0.17l0.34,-0.17l0.08,-0.34l0.33,-0.16l0.33,-0.17l0.33,0l-0.06,0.18l-0.33,0.17l-0.26,0.33l-0.24,0.34l0.24,0.33l0.17,0.33l0.16,0.33l0,0.33l-0.33,0.33l-0.24,0.34l-0.17,0.33l0.24,0.33l0.17,0.33l0.17,0.34l0.33,0.16l0.33,-0.16l0.33,-0.17l0.17,-0.33l0,-0.34l-0.08,-0.33l-0.16,-0.33l-0.34,-0.17l0,-0.33l-0.08,-0.33l0,-0.33l0.08,-0.33l0.34,-0.08l0.33,-0.34l0.33,-0.07l0.33,-0.09l0.34,-0.09l0.32,0l0.25,-0.33l0.25,-0.34l-0.34,-0.16l-0.32,-0.34l0.32,-0.33l0.34,0.09l0.09,0.33l0.24,0.34l0.17,0.33l0.33,0.16l0.33,-0.08l0.33,0l0.34,0.16l0.33,0.17l0.33,0.25l0.26,0.34l0.33,0.33l0.66,0.16l1.33,0l0.34,-0.16l0.33,0.08l0.66,0l0.34,0.25l0.33,0.08l0.33,0.09l0.33,0.07l0.34,0l0.33,0.09l0.33,0l0.33,-0.09l0.34,0l0.33,-0.33l0.66,0l-0.33,-0.24l-0.33,-0.08l0.33,-0.17l0.67,0l0.33,0.08l0.33,-0.08l0.33,-0.08l0.67,-0.08l0.66,0l0.34,0.16l0.33,-0.08l-0.26,0.33l-0.33,0.16l-0.33,-0.16l-0.33,-0.08l-0.34,0l0.17,0.32l0.26,0.33l0.33,0.26l0.33,0l0.33,0.17l0.34,0.07l0.33,0.09l0.33,-0.09l0.33,0.17l0.34,0.17l0.33,0.08l0.18,0.34l0.06,0.33l0,0.33l-0.33,0.25l-0.08,0.33l0.35,0l0.32,-0.08l0.33,0l0.33,-0.09l0.33,0.09l0.17,0.33l0,0.34l-0.33,0.33l-0.33,0.16l-0.34,0.08l-0.33,0.33l0,0.68l0.33,0.24l0.17,0.34l-0.33,0.25l-0.32,0l-0.35,0l-0.33,0l-0.26,0.33l0,0.32l-0.07,0.34l-0.09,0.33l0,0.33l0.33,0.26l0.33,0.24l0.26,0.33l0.18,0.34l0.15,0.33l-0.25,0.33l-0.41,0.17l-0.43,0.25l-0.33,0l-0.33,0.25l-0.33,0.16l-0.34,0.09l-0.33,0l-0.33,0.17l-0.33,0l-0.34,0l-0.24,0.33l-0.33,0.24l-0.33,-0.07l-0.34,-0.17l-0.33,-0.09l-0.33,-0.17l-0.33,-0.07l-0.34,-0.17l-0.33,0.08l-0.33,-0.08l-0.33,0l0,0.33l0.33,0.25l0.33,0.16l0.24,0.34l0.09,0.42l0,0.33l0.17,0.33l-0.09,0.33l0,0.34l0.33,0.16l0.67,0l0.33,0.08l0.09,0.33l-0.33,0.17l-0.34,0.09l-0.33,0.08l-0.33,0.33l-0.17,0.33l-0.33,0.17l-0.33,0.25l-0.33,0.24l-0.17,0.34l-0.26,0.42l-0.33,-0.26l-0.16,0.35l-0.34,0.24l-0.33,0l-0.33,-0.17l-0.33,-0.16l-0.34,-0.09l-0.07,-0.33l-0.34,-0.17l-0.25,-0.33l-0.33,-0.33l-0.17,-0.34l-0.17,-0.33l-0.17,-0.18" style="fill:#fff;fill-rule:nonzero;stroke:#fff;stroke-width:0.07px;"/><path d="M5.49,21.2l0.26,0.5l-0.34,0.17l-0.33,0l-0.42,0.09l-0.33,0.16l-0.33,0.34l-0.08,0.33l-0.17,0.33l0.17,0.33l-0.09,0.34l-0.24,0.33l-0.26,0.32l-0.08,0.33l0,0.34l-0.25,0.33l-0.33,0.33l-0.08,0.33l0.16,0.34l-0.08,0.33l0,0.33l0.08,0.33l-0.16,0.34l0,0.33l0.33,0.16l0.33,0.17l0.41,-0.17l0.42,-0.07l0.34,-0.09l0.33,-0.08l0.08,0.33l-0.17,0.33l-0.17,0.34l-0.33,0.16l-0.33,0.25l-0.24,0.33l-0.34,0.33l-0.16,0.33l-0.34,0.26l-0.33,0.33l-0.25,0.33l-0.08,0.34l-0.09,0.33l0.09,0.33l0.33,0.17l0.41,0l0.33,-0.09l0.17,-0.33l0.33,-0.34l0.34,-0.16l0.33,-0.08l0.33,0.24l0.33,0l0.26,0.34l0.33,0.09l0.33,0.07l0.17,-0.33l0.25,-0.33l0.17,-0.33l0.17,-0.34l0.07,-0.41l0.09,-0.33l0.17,-0.33l0.08,-0.33l0.33,0.24l0.17,-0.33l0,-0.34l0.24,-0.33l0.33,-0.16l0.42,-0.17l0.41,-0.17l0.34,-0.16l0.42,-0.17l0.41,-0.24l0.33,-0.26l0.33,-0.33l0.26,-0.33l0.24,-0.33l0.09,-0.34l0.17,-0.33l0.07,-0.33l0.09,-0.33l0,-0.34l0.33,-0.07l-0.25,-0.5l-0.33,-0.25l0.33,-0.16l0.15,-0.35l-0.48,0.01l-0.34,-0.08l-0.33,-0.25l-0.33,-0.09l-0.33,-0.16l-0.34,-0.17l-0.07,0.33l-0.34,0.17l-0.33,-0.17l-0.33,0l-0.33,-0.16l-0.34,-0.34l-0.33,-0.24l-0.33,0.08l-0.33,-0.08l-0.34,-0.09l-0.33,-0.08l-0.33,-0.33l-0.59,-0.59" style="fill:#fff;fill-rule:nonzero;stroke:#fff;stroke-width:0.07px;"/><path d="M21.2,29.58l-0.5,-0.5l0,-0.33l-0.17,-0.16l-0.33,0.16l-0.67,0.33l1.58,-1.99l-0.41,-0.08l-0.09,-0.33l-0.33,-0.17l-0.32,0l-0.34,-0.09l-0.33,0l-0.25,0.34l-0.34,0.16l-0.33,-0.33l-0.33,-0.08l-0.33,0.08l-0.34,0.17l-0.33,0.16l-0.33,0.17l-0.33,-0.08l-0.43,0.25l-0.16,-0.34l-0.33,-0.07l0.16,-0.34l-0.16,-0.33l0.08,-0.33l-0.33,-0.17l-0.33,-0.25l-0.17,-0.34l-0.33,-0.07l-0.33,-0.17l-0.33,-0.09l-0.26,-0.33l-0.17,-0.32l-0.33,-0.17l-0.33,-0.25l-0.33,-0.17l-0.34,-0.08l-0.16,0.34l-0.33,0.16l0.33,0.25l0.25,0.49l-0.33,0.08l0,0.33l-0.09,0.34l-0.08,0.33l-0.16,0.33l-0.09,0.33l-0.24,0.34l-0.26,0.33l-0.33,0.33l-0.33,0.26l-0.41,0.24l-0.43,0.17l-0.33,0.16l-0.41,0.17l-0.42,0.17l-0.33,0.16l-0.25,0.33l0,0.34l-0.16,0.33l-0.33,-0.25l-0.08,0.34l-0.17,0.33l-0.09,0.33l-0.07,0.41l-0.17,0.33l-0.17,0.34l-0.25,0.33l-0.17,0.33l-0.33,-0.08l-0.33,-0.08l-0.26,-0.34l-0.33,0l-0.33,-0.24l-0.34,0.08l-0.33,0.16l-0.33,0.34l-0.17,0.33l-0.33,0.09l-0.41,0l-0.08,0.09l0,0.33l0.17,0.33l0.33,0l0.17,0.33l-0.25,0.42l-0.33,0.17l0.08,0.33l0.33,0.17l0.33,0.08l0.5,0.09l0.34,0.16l0.33,0.17l0.33,0.33l0.26,0.33l0.16,0.34l0.17,0.33l0.08,0.33l0.34,0.24l0.33,0.26l0.58,0.41l0.09,0.33l0.07,0.33l0.09,0.34l0.34,0.66l0.24,0.33l0.17,0.34l0.24,0.33l0.17,0.42l0.08,0.33l0.25,0.33l0.16,0.34l0.09,0.33l0.25,0.33l0.33,0.25l0.33,0.33l0.17,0.33l0.09,0.34l0.24,0.34l0.26,0.33l0.33,0.33l0.16,0.33l0.17,0.41l0.24,0.34l0.34,0l0.16,0.33l-0.16,0.33l-0.17,0.33l0,0.34l0.26,0.33l0.07,0.33l0.34,0.26l0.33,0.16l0.33,0.17l0.33,0.33l0.34,0.17l0.25,0.33l0.24,0.33l0.34,0.17l0.66,0.16l0.33,0.17l0.34,0.16l0.33,0.16l0.33,0.17l0.33,0.16l0.34,0l0.34,0.26l0.33,0.17l0.34,0.07l0.33,0l0.66,0.34l0.34,0.16l0.33,0.26l0.33,0.33l0.17,0.33l0.32,0.25l0.33,0.16l0.26,0.33l0.33,0.26l0.33,0.17l0.33,-0.09l0.34,-0.08l0.33,-0.17l0.16,-0.33l-0.08,-0.33l0.25,-0.33l-0.09,-0.34l-0.24,-0.33l-0.09,-0.33l0.17,-0.33l0.33,-0.17l0.33,-0.17l0.33,-0.16l-0.07,-0.34l-0.09,-0.33l-0.34,0.09l-0.33,-0.25l-0.33,-0.08l-0.33,-0.17l-0.34,-0.16l0.34,-0.09l0.33,-0.08l-0.24,-0.33l0.07,-0.42l0.34,0.16l0.16,0.26l0.17,-0.34l0.16,-0.25l-0.07,-0.33l0.16,-1l0.41,-0.41l-0.16,-1l0,-0.58l0.42,-1.42l-1.5,-2.33l-0.42,-0.08l-0.33,0.17l-0.33,0.16l-0.34,0l-0.33,-0.08l-0.17,-0.34l0.09,-0.33l0,-1.24l-0.09,-0.33l0,-0.34l-0.32,-0.08l-0.33,0.25l-0.33,0.17l-0.33,0.24l-0.26,0.33l-0.33,0.09l-0.33,0.08l-0.34,0l-0.24,-0.33l-0.33,-0.34l-0.35,-0.24l-0.33,-0.09l-0.33,0.09l-0.33,0l0.08,-0.33l-0.08,-0.42l-0.17,-0.34l-0.33,-0.33l-0.25,-0.33l-0.09,-0.33l-0.07,-0.33l-0.34,-0.25l-0.16,-0.33l0.16,-0.33l0.08,-0.34l0.09,-0.33l0.08,-0.33l0.16,-0.33l0.43,-0.17l0.33,-0.33l-0.09,-0.33l-0.08,-0.34l0,-0.33l0.17,-0.33l0.24,-0.33l0.17,-0.34l0.16,-0.33l0.26,-0.33l0.24,-0.33l0.35,-0.17l0.33,-0.17l0.33,-0.09l0.74,0l0.34,-0.33l0.33,-0.16l0.42,-0.17l0.33,0l0.32,0.17l0.34,-0.17l0.33,0l0.08,-0.18" style="fill:#fff;fill-rule:nonzero;stroke:#fff;stroke-width:0.07px;"/><path d="M38.08,7.91l0.33,0.24l0.67,0l0.33,0.26l0,0.33l0.16,0.33l0.35,0.33l0.33,0.34l0.08,0.33l0,0.33l-0.08,0.33l-0.09,0.33l0,0.34l0.26,-0.34l0.16,-0.33l0.34,0l0.33,0.17l0.33,0.16l0.24,0.34l0.26,0.33l0.33,0.17l0.08,0.33l0.09,0.33l-0.09,0.33l0,0.34l-0.08,0.33l-0.33,0.24l-0.5,0.09l-0.09,0.33l-0.08,0.34l-0.16,0.33l0,0.33l0.08,0.33l0.08,0.34l0.25,0.33l0.16,0.33l0.34,0.24l0.33,0.34l0.09,0.33l0.16,0.33l0.25,0.33l0.16,0.34l0.26,0.33l-0.42,0.09l-0.33,0l-0.34,0.16l-0.33,0.35l-0.33,0l-0.58,0l-0.33,0.15l-0.33,0.17l-0.34,0.16l-0.33,0l-0.34,-0.08l-0.41,-0.25l-0.33,-0.09l-0.34,-0.16l-0.16,-0.33l-0.09,-0.34l-0.08,-0.33l-0.17,-0.33l0,-0.33l0,-0.34l0,-0.33l0,-0.33l0.08,-0.33l0.09,-0.34l0.08,-0.33l-0.08,-0.33l-0.25,-0.33l-0.25,-0.34l0,-0.33l0.33,-0.24l0,-0.59l-0.33,-0.17l-0.33,0l-0.33,0.17l-0.32,0.15l-0.19,-0.33l-0.26,-0.33l-0.33,-0.24l-0.33,-0.26l0,-0.33l0.09,-0.33l0.07,-0.34l0,-0.32l0.26,-0.33l1,0l0.33,-0.25l-0.17,-0.34l-0.33,-0.24l0,-0.33l0,-0.35l0.33,-0.33l0.33,-0.08l0.34,-0.16l0.33,-0.34l0,-0.33l0.09,-0.15" style="fill:#fff;fill-rule:nonzero;stroke:#fff;stroke-width:0.07px;"/><path d="M42.57,12.55l-0.09,0.33l0,0.33l-0.08,0.34l-0.33,0.24l-0.5,0.09l-0.09,0.33l-0.08,0.33l-0.16,0.34l0,0.33l0.07,0.33l0.09,0.33l0.25,0.34l0.16,0.33l0.34,0.24l0.33,0.34l0.09,0.33l0.16,0.33l0.25,0.33l0.16,0.34l0.26,0.33l0.09,0.1l0.33,0l0.33,0.24l0.42,-0.08l0.34,-0.25l0,-0.33l-0.34,-0.25l0.08,-0.33l0.33,0.08l0.34,0.09l0.33,-0.09l0.33,-0.17l0.33,0l0.17,0.33l0.33,0l0.33,-0.24l0.09,-0.33l0.17,-0.33l0.17,-0.34l0.07,-0.33l0.17,-0.33l0,-0.33l-0.33,-0.34l-0.17,-0.33l0,-0.33l-0.08,-0.33l-0.16,-0.34l0,-0.33l0.07,-0.33l0.34,-0.17l0.25,-0.33l0.17,-0.33l0.16,-0.34l-0.33,-0.08l-0.33,0l-0.33,-0.08l-0.34,-0.09l-0.33,-0.08l-0.33,-0.16l-0.33,0.16l-0.34,0.08l-0.33,0l-0.33,0.09l-0.33,0l-0.34,-0.17l-0.33,0l-0.33,0.08l-0.33,-0.08l-0.34,0.08l-0.08,0.33l-0.09,0.08" style="fill:#fff;fill-rule:nonzero;stroke:#fff;stroke-width:0.07px;"/><path d="M46.99,18.39l0.33,0.08l0.42,0.16l0.34,-0.16l0.33,-0.25l0.33,0.08l0.33,-0.08l0.34,0.17l0.33,0.08l0.33,-0.25l0.83,-1.08l0.17,-0.33l0.24,-0.34l0.26,-0.41l0.24,-0.33l0.26,-0.33l-0.09,-0.33l-0.08,-0.34l-0.33,0l-0.09,0.34l-0.08,-0.34l-0.25,-0.33l-0.34,-0.25l-0.33,-0.25l-0.24,-0.33l-0.34,-0.33l-0.33,-0.26l-0.33,0l-0.33,-0.16l-0.17,-0.34l-0.5,0.17l-0.34,0.08l-0.17,0.33l-0.25,0.33l-0.34,0.17l-0.07,0.33l0,0.33l0.16,0.34l0.08,0.33l0,0.33l0.17,0.33l0.33,0.34l0,0.33l-0.17,0.33l-0.07,0.33l-0.17,0.34l-0.17,0.33l-0.09,0.33l-0.33,0.24l0.18,0.27" style="fill:#fff;fill-rule:nonzero;stroke:#fff;stroke-width:0.07px;"/><path d="M23.05,52.8l0.5,0.59l0.09,0.41l0.07,0.33l0.17,0.33l0.33,0.33l0.33,0.26l0.34,0.24l-0.17,0.33l-0.17,0.43l0.09,0.33l-0.16,0.33l0.07,0.33l0.09,0.34l0.08,0.33l0.26,0.33l0.24,0.33l0.09,0.34l0,0.33l0.08,0.33l0.16,0.33l0.17,0.34l0.09,0.33l0.07,0.33l-0.33,0.24l0.26,0.34l0.33,0.09l0.33,0.16l0.33,-0.09l0.25,-0.41l0.09,-0.33l0.33,-0.09l0.33,-0.24l0.08,-0.33l0.33,-0.09l0.17,-0.34l0.33,0l0.33,0.17l0.34,0.17l0.33,0.09l0.33,-0.09l0.33,-0.08l0.34,0l0.33,0.24l0,0.34l0.17,0.33l0.33,0.09l0,-0.34l0.09,-0.33l0.16,-0.33l0.17,-0.33l1.5,0l0.33,0.24l0.08,-0.17l0.42,-1.74l0,-1.16l0.83,-1.5l1.33,-0.16l1.24,-0.33l1.57,0l1.51,0.66l0.41,0.91l0.42,-0.5l-0.5,-0.41l0.08,-0.33l0.17,-0.33l0.09,-0.34l0.07,-0.33l0.17,-0.33l0.09,-0.33l0.16,-0.34l0.17,-0.33l-0.25,-0.33l-0.25,-0.33l-0.33,-0.26l-0.33,-0.33l-0.34,-0.17l-0.08,-0.33l-0.17,-0.33l0.09,-0.33l0.16,-0.34l0.17,-0.33l-0.09,-0.08l-2.99,-0.16l-0.5,-1.75l0.33,0l0.17,-0.34l0,-0.33l-0.24,-0.33l0.16,-0.33l0,-0.34l-0.25,-0.33l-0.34,-0.17l-0.33,-0.07l-0.33,-0.17l-0.33,-0.17l-0.34,0l-0.33,0.08l-0.33,0l-0.33,-0.24l-0.34,-0.33l-0.33,0l-0.33,-0.09l-0.33,-0.17l-0.34,-0.24l-0.24,-0.34l-0.33,0l-0.33,-0.16l-0.34,-0.09l-0.33,0l-0.33,0l-0.34,-0.17l-0.25,-0.33l-0.33,-0.24l-0.33,-0.17l-0.34,-0.33l-0.33,-0.26l-0.08,-0.33l0.08,-0.33l0,-0.33l-0.08,-0.34l-0.16,-0.33l-0.17,-0.33l0.17,-0.33l0.16,-0.34l0,-0.33l-0.16,-0.33l-0.34,0.09l-0.33,0l-0.33,0.08l-0.33,0l-0.34,0.08l-0.33,0.25l-0.25,0.33l-0.34,0.26l-0.33,0.07l-0.33,0.17l-0.25,0.33l-0.33,0.17l-0.33,0.09l-0.26,0.33l-0.24,0.33l-0.33,0l-0.33,-0.16l-0.34,-0.09l-0.33,0.09l-0.33,0.07l-0.27,0.07l1.5,2.33l-0.42,1.42l0,0.58l0.16,1l-0.41,0.41l-0.16,1l0.07,0.33l-0.16,0.25l-0.17,0.34l-0.16,-0.26l-0.34,-0.16l-0.07,0.42l0.24,0.33l-0.33,0.08l-0.34,0.09l0.34,0.16l0.33,0.17l0.33,0.08l0.33,0.25l0.34,-0.09l0.09,0.33l0.07,0.34l-0.33,0.16l-0.33,0.17l-0.33,0.17l-0.17,0.33l0.09,0.33l0.24,0.33l0.09,0.34l0.18,0.34" style="fill:#fff;fill-rule:nonzero;stroke:#fff;stroke-width:0.07px;"/><path d="M41.17,56.29l-0.41,-0.91l-1.51,-0.66l-1.57,0l-1.24,0.33l-1.33,0.16l-0.83,1.5l0,1.16l-0.42,1.74l-0.08,0.17l0.24,0.17l0.33,0.25l0.26,0.33l0.17,0.34l0.33,0.24l0.33,0.33l0.33,0.34l0.34,0.16l0.33,0.26l0.33,0l0.33,0.16l0.34,0.33l0.32,0l0.25,0.34l0.33,0.07l0.34,0.26l0.33,0.33l0.33,0.17l0.33,0.16l0.34,0.17l0.33,0l0.33,0.08l0.33,0.09l0.34,0.24l0.33,0.26l0,0.33l-0.24,0.33l-0.17,0.33l-0.33,0.34l-0.09,0.33l-0.17,0.41l-0.24,0.33l-0.09,0.33l-0.08,0.34l0,0.33l0.33,-0.08l0.34,0l0.33,0.08l0.33,0.16l0.33,0.09l0.34,0l0.33,0.08l0.66,0l0.34,0.09l0.33,-0.26l0.33,0.09l0.33,0l0.34,-0.25l0.16,-0.33l0.25,-0.34l0.33,-0.24l0.33,-0.17l0.26,-0.33l0,-0.33l-0.09,-0.33l0.09,-0.34l0.16,-0.33l0,-0.33l0,-0.33l0,-0.34l0,-0.33l0,-0.42l0.17,-0.33l0.08,-0.34l-0.08,-0.33l-0.33,-0.08l-0.42,0l-0.34,-0.08l-0.33,-0.25l-0.08,-0.33l-0.09,-0.33l0.09,-0.33l-0.16,-0.34l-0.09,-0.33l0.09,-0.33l-0.17,-0.33l-0.33,-0.17l-0.33,-0.17l-0.34,-0.16l-0.33,0l-0.33,0.07l-0.33,0l-0.34,0l-0.33,0.17l-0.33,-0.08l-0.42,-0.16l0.09,-0.34l0.07,-0.33l0,-0.33l-0.16,-0.33l0.16,-0.34l0,-0.33l-0.16,-0.33l0,-0.33l0,-0.34l-0.17,-0.25" style="fill:#fff;fill-rule:nonzero;stroke:#fff;stroke-width:0.07px;"/><path d="M30.29,114.62l0.16,0.34l0.33,0.24l0.34,0.09l0.33,-0.26l-0.09,-0.33l-0.33,-0.08l-0.74,0" style="fill:#fff;fill-rule:nonzero;stroke:#fff;stroke-width:0.07px;"/><path d="M30.12,115.03l-0.33,-0.04l-0.34,0l-0.33,0.13l-0.16,0.34l0.33,0.24l0.33,-0.24l0.33,0l0.34,0.07l0.16,-0.33l-0.33,-0.17" style="fill:#fff;fill-rule:nonzero;stroke:#fff;stroke-width:0.07px;"/><path d="M46.58,65.66l0.33,-0.16l0.33,0.09l0.25,0.33l0,0.33l0.16,0.33l0,0.67l-0.07,0.33l0,0.33l-0.26,0.34l-0.33,0.24l-0.33,0l-0.34,0.17l-0.33,0.25l-0.33,0.17l-0.17,0.33l-0.33,0.17l-0.33,0.07l-0.33,0.17l-0.34,0.33l-0.16,0.34l-0.25,0.33l-0.33,0.33l-0.25,0.33l-0.34,0.34l-0.24,0.33l-0.26,0.33l-0.24,0.33l-0.25,0.33l-0.25,0.34l-0.16,0.33l-0.09,0.33l-0.08,0.33l-0.09,0.34l-0.08,0.33l0,0.33l-0.16,0.33l-0.09,0.34l-0.08,0.33l0,0.33l-0.09,0.33l0,0.67l-0.08,0.33l-0.25,0.33l-0.08,0.34l-0.09,0.33l0,0.33l0.09,0.33l0.08,0.34l0,0.33l0.09,0.33l0.33,0.17l0.33,0.16l0.34,0.17l0.33,0.17l0.33,0.16l0.24,0.33l-0.07,0.34l-0.26,0.33l0,0.33l0.33,0.33l0.34,0.26l0.16,0.33l0,0.33l-0.07,0.34l-0.17,0.33l-0.17,0.33l-0.33,0.33l-0.25,0.34l-0.17,0.33l-0.17,0.33l-0.24,0.33l-0.33,0l-0.34,0.08l-0.42,0.26l-0.33,0.07l-0.33,0.09l-0.33,0.17l-0.34,0.17l-0.33,0l-0.42,0.16l-0.33,0.08l-0.32,0.09l-0.34,0l-0.33,0.24l-0.33,-0.24l-0.33,0.16l-0.34,-0.25l-0.42,-0.24l-0.16,0.33l0.08,0.33l0.34,0.24l0.07,0.34l-0.07,0.33l-0.34,0.25l0,0.34l-0.08,0.33l-0.08,0.33l0.24,0.33l0.09,0.34l-0.33,0.33l-0.42,0.16l-0.34,0l-0.33,0l-0.33,0.17l-0.33,0l-0.34,-0.33l-0.33,-0.17l-0.33,-0.09l-0.33,-0.07l-0.17,0.33l-0.08,0.33l0.08,0.33l0.17,0.34l0,0.66l0.33,0.24l0.33,0.09l0.33,0.25l0.34,-0.25l0.33,-0.16l0.09,0.33l0.16,0.66l-0.33,0.17l-0.33,0l-0.17,-0.33l-0.33,0l-0.33,0l-0.33,0.16l0.07,0.34l0.34,0.16l0.33,0l0,0.34l-0.33,0.07l-0.34,0.17l-0.33,0.25l0,0.67l0.09,0.33l0.08,0.33l0.16,0.34l-0.16,0.33l-0.34,0.08l0,0.66l-0.33,0.09l-0.33,-0.09l-0.33,0l-0.17,0.33l-0.33,0.09l-0.33,0.25l-0.17,0.33l-0.08,0.33l-0.09,0.33l0,0.34l0.09,0.33l0.08,0.33l0.33,0.26l0.33,0.16l0.34,0.33l0.33,0.08l0.33,-0.08l0.33,-0.16l0.26,0.33l0.08,0.33l0,0.34l-0.25,0.33l0,0.33l-0.33,0.33l-0.33,0.17l-0.34,0.24l-0.33,0.34l-0.33,0.33l-0.17,0.33l-0.25,0.33l0.33,0l0.09,0.34l-0.25,0.33l-0.17,0.33l0,0.33l-0.33,0.09l-0.34,-0.33l-0.16,0.33l0.16,0.33l-0.16,0.34l-0.17,0.33l-0.5,0.83l0.33,-0.09l0.26,0.33l0.08,0.34l0,0.42l0.33,0.16l0.33,0.17l0.26,0.33l-0.17,0.33l-0.33,0l-0.42,-0.16l-0.34,0.16l-0.16,-0.33l-0.41,0l-0.33,0l-0.34,0l-0.33,0l-0.33,0.08l-0.33,0.09l-0.34,0l-0.33,-0.17l-0.09,-0.33l-0.08,-0.33l-0.16,-0.34l-0.09,-0.33l0.09,-0.33l0,-0.33l-0.17,-0.34l-0.33,0.25l-0.33,0.16l-0.34,-0.07l-0.25,-0.34l-0.24,-0.33l0.07,-0.33l0,-0.33l0,-0.33l0.09,-0.34l0.08,-0.33l0.17,-0.33l0.25,-0.33l0.17,-0.34l0,-0.33l-0.26,-0.33l0,-0.33l0,-0.34l0.09,-0.33l0.17,-0.33l0,-0.33l0.07,-0.34l0.17,-0.33l0.09,-0.33l-0.26,-0.33l0,-0.34l-0.16,-0.06l0.09,-0.42l0,-0.34l0.07,-0.33l0.34,-0.33l-0.08,-0.33l-0.33,-0.17l-0.34,-0.17l-0.33,-0.24l0.33,-0.09l0.34,0l0.41,-0.08l0.33,-0.25l-0.17,-0.33l-0.33,-0.17l-0.33,0.17l-0.33,-0.17l0,-0.33l-0.08,-0.33l-0.09,-0.34l0,-0.33l0,-0.33l-0.17,-0.33l-0.33,-0.25l-0.08,-0.33l0,-0.33l0.25,-0.26l0.09,-0.33l0,-0.33l-0.17,-0.34l-0.17,-0.33l-0.16,-0.33l-0.09,-0.33l0,-0.34l0,-0.33l0,-0.33l0,-0.33l0,-0.34l0,-0.33l0.09,-0.33l0.07,-0.33l0.09,-0.34l0,-0.33l0,-0.33l0.34,-0.24l0.33,-0.34l-0.09,-0.33l-0.08,-0.33l-0.16,-0.33l-0.17,-0.34l-0.17,-0.33l0,-0.33l0.17,-0.33l-0.09,-0.34l-0.08,-0.33l0,-0.33l0.25,-0.33l0.25,-0.34l0.08,-0.33l0.17,-0.33l-0.17,-0.33l-0.17,-0.34l-0.07,-0.33l0.07,-0.33l0.34,-0.17l0.08,-0.33l0.17,-0.33l0,-0.33l0.33,-0.17l0.08,-0.17l0,-0.33l-0.08,-0.33l0,-0.33l-0.09,-0.34l-0.24,-0.33l-0.17,-0.33l-0.08,-0.17l0.08,-0.33l-0.16,-0.33l-0.17,-0.33l-0.16,-0.34l0.24,-0.33l-0.33,-0.33l-0.34,-0.33l-0.24,-0.34l0.08,-0.33l0.33,-0.09l0.26,-0.33l-0.09,-0.33l0,-0.34l0.16,-0.33l0.17,-0.33l-0.08,-0.33l-0.16,-0.34l-0.09,-0.33l-0.08,-0.33l0.17,-0.33l0.16,-0.34l0.08,-0.33l0.09,-0.41l0.08,-0.33l0.16,-0.33l0.17,-0.33l0.09,-0.34l0.16,-0.33l0.25,-0.33l0.33,-0.33l0,-0.34l0.33,-0.25l-0.08,-0.33l-0.25,-0.34l0,-0.33l0.17,-0.33l-0.08,-0.33l-0.17,-0.34l-0.09,-0.33l0,-0.33l0.26,-0.33l0,-0.34l-0.09,-0.33l0.25,-0.5l1.58,-1l0.09,-1.57l0,-0.33l-0.09,-0.17l0.09,-0.33l0.33,-0.09l0.33,-0.24l0.08,-0.33l0.33,-0.09l0.17,-0.34l0.33,0l0.33,0.17l0.34,0.17l0.33,0.09l0.33,-0.09l0.33,-0.08l0.34,0l0.33,0.24l0,0.34l0.17,0.33l0.33,0.09l0,-0.34l0.09,-0.33l0.16,-0.33l0.17,-0.33l1.5,0l0.33,0.24l0.24,0.17l0.33,0.25l0.26,0.33l0.17,0.34l0.33,0.24l0.33,0.33l0.33,0.34l0.34,0.16l0.33,0.26l0.33,0l0.33,0.16l0.34,0.33l0.32,0l0.25,0.34l0.33,0.07l0.34,0.26l0.33,0.33l0.33,0.17l0.33,0.16l0.34,0.17l0.33,0l0.33,0.08l0.33,0.09l0.34,0.24l0.33,0.26l0,0.33l-0.24,0.33l-0.17,0.33l-0.33,0.34l-0.09,0.33l-0.17,0.41l-0.24,0.33l-0.09,0.33l-0.08,0.34l0,0.33l0.33,-0.08l0.34,0l0.33,0.08l0.33,0.16l0.33,0.09l0.34,0l0.33,0.08l0.66,0l0.34,0.09l0.33,-0.26l0.33,0.09l0.33,0l0.34,-0.25l0.16,-0.33l0.25,-0.34l0.33,-0.24l0.33,-0.17l0.26,-0.33l0,-0.33l-0.09,-0.33l0.09,-0.34l0.33,-0.19" style="fill:#fff;fill-rule:nonzero;stroke:#fff;stroke-width:0.07px;"/><path d="M30.12,114.04l0.33,0.25l0.33,0.17l0.67,0l0.33,0.08l0.34,0.16l0.41,-0.08l0.33,-0.08l0.33,-0.08l0.33,-0.09l-0.07,-0.33l-0.34,0l-0.33,-0.08l-0.33,0l-0.26,-0.33l-0.33,-0.09l-0.33,-0.08l-0.33,-0.17l-0.17,-0.33l-0.33,-0.16l-0.25,-0.34l-0.16,-0.33l-0.34,0l0.08,-0.33l0,-0.33l-0.24,-0.34l-0.09,-0.16l0,1.16l0.09,0.33l0.08,0.58l0.08,0.5l0,0.42l0.17,0.08" style="fill:#fff;fill-rule:nonzero;stroke:#fff;stroke-width:0.07px;"/><path d="M41.59,73.48l-0.16,0.33l-0.09,0.33l-0.08,0.33l-0.09,0.34l-0.08,0.33l0,0.33l-0.16,0.33l-0.09,0.34l-0.08,0.33l0,0.33l-0.09,0.33l0,0.67l-0.08,0.33l-0.25,0.33l0.09,0.43l0,0.33l0.16,0.66l0.34,0.25l0.33,0.25l0.33,0l0.33,-0.09l0.34,0.09l0.24,0.33l0.17,0.34l0.33,0.16l0.66,0l0.34,-0.16l0.33,0.07l0.33,0.09l0.33,0.08l0.34,0.09l0.33,0l0.33,-0.17l0.26,-0.33l0.33,-0.09l0.33,-0.24l0.08,-0.33l0.25,-0.34l0.34,-0.25l0,-0.33l-0.17,-0.34l-0.17,-0.33l0.17,-0.33l0.17,-0.33l0.33,0l0,-0.34l-0.33,-0.33l-0.26,-0.33l-0.24,-0.33l-0.26,-0.34l-0.33,-0.24l-0.33,-0.26l-0.33,-0.16l-0.34,-0.25l-0.33,-0.25l-0.17,-0.33l-0.24,-0.34l-0.33,0.09l-0.33,-0.16l-0.26,-0.34l-0.33,-0.33l-0.33,-0.25l-0.17,-0.34l-0.33,0l-0.34,0.17l-0.33,0.09l-0.41,0.08" style="fill:#fff;fill-rule:nonzero;stroke:#fff;stroke-width:0.07px;"/><path d="M20.72,94.01l0,1.33l-0.17,0.33l0,0.67l0.09,0.33l0.34,-0.09l0.33,0l0.16,-0.33l0,-0.33l0,-0.33l-0.33,-0.25l0.08,-0.33l0.25,-0.33l-0.08,-0.34l-0.08,-0.33l-0.33,0.08l-0.26,-0.08" style="fill:#acd8d9;fill-rule:nonzero;stroke:#acd8d9;stroke-width:0.2px;"/><path d="M29.95,114.13l-0.33,0.07l-0.33,0.26l-0.26,-0.33l-0.33,0l-0.33,-0.09l-0.33,-0.17l-0.34,0.26l-0.41,0.16l-0.33,-0.09l-0.33,0.26l0.33,0.08l0.33,-0.17l0.08,0.33l0.33,0l0.34,0.26l0.08,-0.34l0.34,-0.08l0.33,0l0.33,0.16l0.33,0.17l0.49,-0.25l0.01,-0.49" style="fill:#acd8d9;fill-rule:nonzero;stroke:#acd8d9;stroke-width:0.2px;"/><path d="M25.3,112.96l-0.26,0.33l0.09,0.34l0.33,0l0.34,0.07l0.24,-0.33l-0.33,-0.33l-0.41,-0.08" style="fill:#acd8d9;fill-rule:nonzero;stroke:#acd8d9;stroke-width:0.2px;"/><path d="M28.87,110.88l-0.25,0.33l0,0.33l-0.42,0l-0.33,-0.16l-0.17,0.33l0,0.33l0.09,0.33l0.33,0.17l0.34,-0.24l0.16,0.33l-0.33,0.17l-0.09,0.33l0.09,0.33l0.33,0.24l0.34,0.09l0.33,0l0.33,0.17l0.33,0l0,-0.42l-0.08,-0.5l-0.08,-0.58l-0.09,-0.33l0,-0.5l0,-0.33l0,-0.33l-0.33,0.24l-0.34,-0.08l-0.16,-0.25" style="fill:#acd8d9;fill-rule:nonzero;stroke:#acd8d9;stroke-width:0.2px;"/><path d="M24.8,112.8l-0.26,-0.34l-0.33,-0.16l-0.33,0l-0.33,-0.17l-0.34,-0.25l0,0.33l0.26,0.33l0.33,0.09l0.67,0l0.33,0.17" style="fill:#acd8d9;fill-rule:nonzero;stroke:#acd8d9;stroke-width:0.2px;"/><path d="M21.97,105.32l-0.33,0.16l-0.33,0l0.08,0.33l0.16,0.34l-0.33,0.24l0.09,0.33l0.16,0.34l0.34,-0.17l0.24,0.33l0.17,0.33l0.33,0.09l0,-0.42l-0.08,-0.33l-0.09,-0.33l-0.16,-0.41l0,-0.34l-0.25,-0.49" style="fill:#acd8d9;fill-rule:nonzero;stroke:#acd8d9;stroke-width:0.2px;"/><path d="M22.87,52.46l0.18,0.34l0.5,0.59l0.09,0.41l0.07,0.33l0.17,0.33l0.33,0.33l0.33,0.26l0.34,0.24l-0.17,0.33l-0.17,0.43l0.09,0.33l-0.16,0.33l0.07,0.33l0.09,0.34l0.08,0.33l0.26,0.33l0.24,0.33l0.09,0.34l0,0.33l0.08,0.33l0.16,0.33l0.17,0.34l0.09,0.33l0.07,0.33l-0.33,0.24l0.26,0.34l0.33,0.09l0.33,0.16l0.33,-0.09l0.25,-0.41l0.09,0.17l0,0.33l-0.09,1.57l-1.58,1l-0.25,0.5l0.09,0.33l0,0.34l-0.26,0.33l0,0.33l0.09,0.33l0.17,0.34l0.08,0.33l-0.17,0.33l0,0.33l0.25,0.34l0.08,0.33l-0.33,0.25l0,0.34l-0.33,0.33l-0.25,0.33l-0.16,0.33l-0.09,0.34l-0.17,0.33l-0.16,0.33l-0.08,0.33l-0.09,0.41l-0.08,0.33l-0.16,0.34l-0.17,0.33l0.08,0.33l0.09,0.33l0.16,0.34l0.08,0.33l-0.17,0.33l-0.16,0.33l0,0.34l0.09,0.33l-0.26,0.33l-0.33,0.09l-0.08,0.33l0.24,0.34l0.34,0.33l0.33,0.33l-0.24,0.33l0.16,0.34l0.17,0.33l0.16,0.33l-0.08,0.33l0.08,0.17l0.17,0.33l0.24,0.33l0.09,0.34l0,0.33l0.08,0.33l0,0.33l-0.08,0.17l-0.33,0.17l0,0.33l-0.17,0.33l-0.08,0.33l-0.34,0.17l-0.07,0.33l0.07,0.33l0.17,0.34l0.17,0.33l-0.17,0.33l-0.08,0.33l-0.25,0.34l-0.25,0.33l0,0.33l0.08,0.33l0.09,0.34l-0.17,0.33l0,0.33l0.17,0.33l0.17,0.34l0.16,0.33l0.08,0.33l0.09,0.33l-0.33,0.34l-0.34,0.24l0,0.66l-0.09,0.34l-0.07,0.33l-0.09,0.33l0,2l0.09,0.33l0.16,0.33l0.17,0.33l0.17,0.34l0,0.33l-0.09,0.33l-0.25,0.26l0,0.33l0.08,0.33l0.33,0.25l0.17,0.33l0,0.66l0.09,0.34l0.08,0.33l0,0.33l0.33,0.17l0.33,-0.17l0.33,0.17l0.17,0.33l-0.33,0.25l-0.41,0.08l-0.34,0l-0.33,0.09l0.33,0.24l0.34,0.17l0.33,0.17l0.08,0.33l-0.34,0.33l-0.07,0.33l0,0.34l-0.09,0.42l0.16,0.06l0,0.34l0.26,0.33l-0.09,0.33l-0.17,0.33l-0.07,0.34l0,0.33l-0.17,0.33l-0.09,0.33l0,0.67l0.26,0.33l0,0.33l-0.17,0.34l-0.25,0.33l-0.17,0.33l-0.08,0.33l-0.09,0.34l0,0.66l-0.07,0.33l0.24,0.33l0.25,0.34l0.34,0.07l0.33,-0.16l0.33,-0.25l0.17,0.34l0,0.33l-0.09,0.33l0.09,0.33l0.16,0.34l0.08,0.33l0.09,0.33l0.33,0.17l0.34,0l0.33,-0.09l0.33,-0.08l1.41,0l0.16,0.33l-0.24,0.34l-0.33,0l-0.33,0.07l-0.34,0.26l-0.16,0.33l0.07,0.33l0,1l-0.07,0.33l-0.34,0l-0.33,-0.16l-0.33,-0.17l-0.26,-0.33l0.34,-0.26l0.33,0.09l0.33,-0.5l0.09,-0.33l-0.09,-0.33l-0.33,0.08l-0.08,0.33l-0.16,0.33l-0.43,0l-0.24,0.33l0,0.43l-0.33,-0.17l-0.09,-0.33l0.17,-0.34l0,-0.33l0.16,-0.33l-0.33,-0.17l-0.08,0.34l0.08,0.33l-0.24,0.33l-0.34,0l0.08,-0.33l0,-0.33l-0.33,0l-0.08,-0.34l0.33,-0.25l-0.09,-0.33l-0.41,-0.17l-0.16,-0.33l0,-0.34l-0.26,-0.33l-0.16,-0.41l0.09,-0.33l-0.34,-0.33l-0.09,-0.34l-0.33,-0.25l-0.08,-0.33l0.08,-0.33l0,-0.34l-0.08,-0.33l-0.08,-0.33l-0.08,-0.33l-0.17,-0.41l0,-0.34l-0.33,-0.25l0.08,-0.33l0.09,-0.34l-0.34,-0.41l0,-0.33l-0.09,-0.33l0.34,-0.17l0,-0.33l-0.17,-0.33l-0.33,-0.09l-0.17,0.33l-0.33,-0.08l-0.33,-0.33l-0.17,0.33l0.09,0.34l-0.33,0.07l-0.17,-0.33l0,-0.33l0.24,-0.33l0.17,-0.34l0,-0.33l0,-0.33l0.33,-0.08l0.34,0l0.33,0.17l0,0.33l-0.08,0.33l0.33,0l0.34,0.17l0.07,-0.33l0,-0.34l-0.16,-0.33l0.25,-0.33l-0.16,-0.33l0.07,-0.34l0.09,-0.33l0.25,-0.33l0.33,-0.17l0.09,-0.33l0,-0.33l-0.34,-0.26l-0.33,-0.07l-0.09,-0.34l0,-0.33l0,-0.42l-0.16,-0.33l0.09,-0.34l0.16,-0.33l-0.09,-0.33l0.17,-0.33l-0.08,-0.34l-0.25,-0.33l0.33,0.17l0.17,-0.33l-0.34,-0.17l0,-0.33l0.09,-0.34l-0.33,-0.24l-0.33,0.17l-0.09,0.33l-0.33,0.08l-0.41,0l-0.17,-0.34l-0.33,-0.24l0,-0.33l0,-0.33l0.07,-0.34l0,-0.33l-0.07,-0.33l0,-0.33l0,-0.43l0.07,-0.33l0.17,-0.33l0,-0.33l0.09,-0.33l-0.09,-0.34l-0.17,-0.33l-0.16,-0.33l-0.08,-0.33l0,-0.34l0,-0.33l0,-0.33l-0.09,-0.33l-0.16,-0.34l0.08,-0.5l0.34,-0.33l0.16,-0.33l0.17,-0.33l0.08,-0.34l0,-0.33l-0.08,-0.33l0,-0.33l0.24,-0.34l0.09,-0.33l0.08,-0.33l0.17,-0.41l0.16,-0.33l0,-0.34l0,-0.33l0.09,-0.33l0,-0.33l0,-0.33l0.17,-0.34l0.16,-0.33l-0.16,-0.33l-0.09,-0.33l0.09,-0.34l0.24,-0.33l-0.17,-0.33l-0.07,-0.33l0.07,-0.34l0,-0.33l-0.07,-0.33l-0.34,-0.33l-0.08,-0.67l-0.08,-0.33l-0.09,-0.33l0,-0.43l0.09,-0.33l0.16,-0.33l0.08,-0.33l-0.24,-0.34l0.16,-0.33l0,-0.33l-0.08,-0.33l-0.08,-0.33l0,-0.34l0.08,-0.33l0.08,-0.33l0,-0.33l0.08,-0.34l0,-0.33l0,-0.33l0.17,-0.33l0.09,-0.34l0,-0.41l0.16,-0.42l0.17,-0.33l0,-0.33l-0.26,-0.34l-0.16,-0.41l0.09,-0.42l0.16,-0.33l0.08,-0.33l-0.08,-0.33l0,-0.34l0,-0.33l0.08,-0.33l0,-0.33l0,-0.41l0.09,-0.34l0,-0.33l-0.09,-0.33l-0.24,-0.33l0,-0.34l0.33,-0.33l0,-0.33l0.08,-0.33l0.09,-0.34l0,-0.33l0,-0.33l0.07,-0.33l-0.07,-0.42l-0.09,-0.34l-0.25,-0.33l0,-0.33l0,-0.41l0,-0.42l0,-0.34l0,-0.33l0.08,-0.41l-0.08,-0.42l-0.09,-0.33l-0.24,-0.33l-0.09,-0.34l-0.08,-0.41l0.08,-0.33l-0.01,-0.16l0.33,-0.09l0.34,-0.08l0.33,-0.17l0.16,-0.33l-0.08,-0.33l0.25,-0.33" style="fill:#acd8d9;fill-rule:nonzero;stroke:#acd8d9;stroke-width:0.2px;"/><path d="M17.22,3.5l0.33,-0.17l0.33,-0.17l0.34,0l0.33,-0.24l0.16,-0.33l-0.07,-0.34l-0.34,-0.25l-0.33,0.09l-0.33,0.16l-0.42,0.34l-0.26,0.33l-0.24,0.33l-0.33,0.08l-0.34,0.17l-0.33,0.16l-0.32,0.35l-0.34,0.16l-0.34,0l-0.33,0l-0.42,0l-0.33,0.08l-0.25,0.33l-0.25,0.33l-0.33,0.34l-0.25,-0.34l-0.33,-0.08l-0.33,0.16l-0.26,0.33l-0.16,0.34l-0.17,0.33l-0.17,0.33l-0.07,0.33l0,0.67l-0.34,0l-0.33,0.09l-0.16,0.33l-0.17,0.33l-0.26,0.34l-0.33,0.16l-0.33,0.25l-0.08,0.33l0.17,0.33l0,0.68l-0.33,0l0,-0.34l-0.26,-0.34l-0.24,-0.33l-0.34,0l0.08,0.33l0,0.34l-0.08,0.34l-0.16,0.33l-0.17,0.33l-0.33,-0.09l-0.09,0.33l0,0.34l0.26,0.33l0.07,0.33l0.34,0.08l0.08,0.33l-0.08,0.42l0.08,0.34l0.17,0.33l-0.17,0.33l-0.16,0.33l0.16,0.34l0,1.33l-0.08,0.33l0,0.33l0.16,0.33l0.33,0l0,0.34l-0.33,0.24l-0.24,0.33l-0.26,0.33l-0.07,0.34l-0.09,0.33l-0.08,0.33l-0.33,0.09l-0.34,0l-0.33,0.18l-0.33,-0.1l-0.08,0.33l0,0.33l0.17,0.33l0.08,0.34l-0.34,0.16l-0.33,0l-0.09,0.35l0,0.07l0.92,0.92l0.33,0.08l0.34,0.09l0.33,0.08l0.33,-0.08l0.33,0.24l0.34,0.34l0.33,0.16l0.33,0l0.33,0.17l0.34,-0.17l0.07,-0.33l0.34,0.17l0.33,0.16l0.33,0.09l0.33,0.25l0.34,0.08l0.5,0l0.33,0.08l0.33,0.17l0.33,0.25l0.34,0.17l0.16,0.32l0.26,0.33l0.33,0.09l0.33,0.17l0.33,0.08l0.17,0.33l0.33,0.25l0.34,0.17l-0.09,0.33l0.16,0.33l-0.16,0.34l0.33,0.07l0.17,0.34l0.42,-0.25l0.33,0.08l0.33,-0.17l0.33,-0.16l0.34,-0.17l0.33,-0.08l0.33,0.08l0.33,0.33l0.34,-0.16l0.25,-0.33l0.33,0l0.34,0.08l0.32,0l0.33,0.17l0.09,0.33l0.41,0.08l-1.57,1.99l0.66,-0.33l0.33,-0.16l0.17,0.16l0,0.33l0.5,0.5l0.41,-2.32l0.16,-2.08l0,-0.16l0.09,-0.33l0,-0.34l-0.25,-0.33l-0.25,-0.33l-0.25,-0.33l-0.33,-0.08l0,-0.33l0,-0.34l0,-0.33l0,-0.33l0.09,-0.33l0.33,0l0.33,-0.26l0.33,0.26l0.34,-0.17l-0.09,-0.33l-0.34,-0.35l-0.33,-0.16l-0.33,0.09l-0.08,-1.09l2.07,0l0.43,0.09l0.33,-0.26l0,-0.33l0.41,0.09l0.33,-0.17l0.33,-0.08l0.34,0l0,-0.34l-0.17,-0.33l-0.24,-0.33l-0.26,-0.33l0.26,-0.34l0.24,-0.33l0.09,-0.33l-0.09,-0.33l-0.24,-0.34l-0.17,-0.33l-0.17,-0.33l-0.09,-0.33l0,-0.34l0,-0.33l0,-0.33l0,-0.33l0.17,-0.34l0.33,-0.33l-0.07,-0.33l0.07,-0.33l-0.07,-0.34l-0.34,-0.07l-0.33,0.16l-0.33,0.08l-0.5,0l-0.33,-0.08l-0.34,-0.09l-0.33,0.09l-0.33,0.17l-0.33,0l-0.26,-0.33l-0.33,-0.26l-0.33,-0.33l-0.34,-0.16l-0.32,-0.09l-0.33,-0.16l-0.33,-0.08l-0.33,-0.09l-0.43,0l-0.33,0l-0.33,-0.08l-0.33,0.08l-0.34,0.17l-0.33,0l-0.16,-0.33l-0.34,-0.25l-0.09,-0.33l0.09,-0.33l0,-0.35l-0.09,-0.33l-0.16,-0.33l-0.25,-0.33l-0.08,-0.34l-0.17,-0.33l0,-0.33l-0.33,0l-0.25,0.33l-0.33,0l0.24,-0.41l0.27,-0.33l0.07,-0.33l-0.07,-0.42l0.07,-0.34l0.16,-0.33l0.17,-0.33l0.17,-0.33l0.33,-0.33l0.16,-0.33l0.34,-0.16l0.34,-0.18l0.08,-0.33" style="fill:#acd8d9;fill-rule:nonzero;stroke:#acd8d9;stroke-width:0.2px;"/></svg>