<?xml version="1.0" encoding="UTF-8" standalone="no"?><!DOCTYPE svg PUBLIC "-//W3C//DTD SVG 1.1//EN" "http://www.w3.org/Graphics/SVG/1.1/DTD/svg11.dtd"><svg width="100%" height="100%" viewBox="0 0 28 28" version="1.1" xmlns="http://www.w3.org/2000/svg" xmlns:xlink="http://www.w3.org/1999/xlink" xml:space="preserve" style="fill-rule:evenodd;clip-rule:evenodd;stroke-linejoin:round;stroke-miterlimit:1.41421;"><path d="M26.287,3.493c0.668,0 1.211,0.543 1.211,1.211l0,18.275c0,0.668 -0.543,1.211 -1.211,1.211l-25.103,0c-0.668,0 -1.211,-0.543 -1.211,-1.211l0,-18.275c0,-0.668 0.543,-1.211 1.211,-1.211l25.103,0Zm-17.719,10.058c-0.506,0.499 -0.984,0.97 -1.454,1.448l-5.15,5.135c-0.311,0.309 -0.455,0.659 -0.324,1.085c0.234,0.772 1.138,0.958 1.745,0.356c2.14,-2.132 4.277,-4.269 6.412,-6.412c0.079,-0.093 0.15,-0.192 0.214,-0.296c0.177,0.162 0.293,0.263 0.409,0.367l2.574,2.339c0.489,0.442 1,0.437 1.492,-0.006c0.89,-0.806 1.78,-1.613 2.669,-2.421c0.081,-0.076 0.171,-0.151 0.272,-0.243c0.804,0.807 1.591,1.597 2.378,2.386l4.288,4.288c0.291,0.292 0.624,0.429 1.03,0.32c0.785,-0.213 1.011,-1.128 0.416,-1.727c-1.433,-1.443 -2.87,-2.881 -4.312,-4.314c-0.766,-0.766 -1.537,-1.529 -2.316,-2.309c0.102,-0.096 0.184,-0.176 0.269,-0.253l3.131,-2.844l3.204,-2.913c0.308,-0.28 0.431,-0.624 0.329,-1.025c-0.08,-0.361 -0.361,-0.645 -0.721,-0.728c-0.404,-0.108 -0.732,0.04 -1.034,0.316c-3.361,3.062 -6.728,6.122 -10.099,9.18c-0.081,0.075 -0.168,0.147 -0.258,0.226l-4.817,-4.378c-1.854,-1.681 -3.71,-3.364 -5.566,-5.049c-0.292,-0.267 -0.619,-0.395 -1.011,-0.285c-0.357,0.086 -0.635,0.369 -0.714,0.728c-0.098,0.404 0.031,0.745 0.34,1.023c1.326,1.203 2.651,2.407 3.975,3.613l2.629,2.393Z"/></svg>