<?xml version="1.0" encoding="UTF-8" standalone="no"?><!DOCTYPE svg PUBLIC "-//W3C//DTD SVG 1.1//EN" "http://www.w3.org/Graphics/SVG/1.1/DTD/svg11.dtd"><svg width="100%" height="100%" viewBox="0 0 28 28" version="1.1" xmlns="http://www.w3.org/2000/svg" xmlns:xlink="http://www.w3.org/1999/xlink" xml:space="preserve" style="fill-rule:evenodd;clip-rule:evenodd;stroke-linejoin:round;stroke-miterlimit:1.41421;"><path d="M27.533,26.014c0,0.839 -0.68,1.519 -1.519,1.519l-7.016,0l0,-10.662l3.579,0l0.535,-4.156l-4.114,0l0,-2.652c0,-1.203 0.333,-2.023 2.059,-2.023l2.2,-0.001l0,-3.717c-0.38,-0.05 -1.686,-0.163 -3.206,-0.163c-3.173,0 -5.345,1.936 -5.345,5.492l0,3.064l-3.588,0l0,4.156l3.588,0l0,10.662l-13.187,0c-0.839,0 -1.519,-0.68 -1.519,-1.519l0,-24.495c0,-0.839 0.68,-1.519 1.519,-1.519l24.495,0c0.839,0 1.519,0.68 1.519,1.519l0,24.495Z" style="fill:#fff;fill-rule:nonzero;"/></svg>