<?xml version="1.0" encoding="UTF-8" standalone="no"?><!DOCTYPE svg PUBLIC "-//W3C//DTD SVG 1.1//EN" "http://www.w3.org/Graphics/SVG/1.1/DTD/svg11.dtd"><svg width="100%" height="100%" viewBox="0 0 28 28" version="1.1" xmlns="http://www.w3.org/2000/svg" xmlns:xlink="http://www.w3.org/1999/xlink" xml:space="preserve" style="fill-rule:evenodd;clip-rule:evenodd;stroke-linejoin:round;stroke-miterlimit:1.41421;"><path d="M13.763,0.343c-7.601,0 -13.763,6.163 -13.763,13.763c0,6.082 3.943,11.239 9.412,13.059c0.688,0.126 0.939,-0.3 0.939,-0.662c0,-0.328 -0.012,-1.413 -0.019,-2.562c-3.827,0.831 -4.636,-1.623 -4.636,-1.623c-0.627,-1.59 -1.528,-2.013 -1.528,-2.013c-1.251,-0.853 0.095,-0.837 0.095,-0.837c1.382,0.096 2.109,1.418 2.109,1.418c1.228,2.104 3.222,1.496 4.005,1.143c0.125,-0.887 0.482,-1.495 0.874,-1.838c-3.055,-0.348 -6.269,-1.529 -6.269,-6.802c0,-1.504 0.537,-2.73 1.415,-3.694c-0.14,-0.349 -0.614,-1.75 0.136,-3.644c0,0 1.155,-0.369 3.785,1.411c1.098,-0.306 2.274,-0.457 3.444,-0.462c1.17,0.005 2.347,0.158 3.446,0.464c2.626,-1.782 3.782,-1.411 3.782,-1.411c0.752,1.896 0.279,3.294 0.138,3.642c0.882,0.964 1.414,2.19 1.414,3.694c0,5.287 -3.219,6.451 -6.285,6.792c0.496,0.427 0.934,1.263 0.934,2.547c0,1.839 -0.018,3.323 -0.018,3.776c0,0.367 0.25,0.795 0.947,0.661c5.465,-1.823 9.405,-6.981 9.405,-13.059c0,-7.6 -6.162,-13.763 -13.763,-13.763Z" style="fill-rule:nonzero;"/></svg>