<?xml version="1.0" encoding="UTF-8" standalone="no"?><!DOCTYPE svg PUBLIC "-//W3C//DTD SVG 1.1//EN" "http://www.w3.org/Graphics/SVG/1.1/DTD/svg11.dtd"><svg width="100%" height="100%" viewBox="0 0 28 28" version="1.1" xmlns="http://www.w3.org/2000/svg" xmlns:xlink="http://www.w3.org/1999/xlink" xml:space="preserve" style="fill-rule:evenodd;clip-rule:evenodd;stroke-linejoin:round;stroke-miterlimit:1.41421;"><rect x="0.612" y="9.238" width="5.393" height="17.087" style="fill:#fff;fill-rule:nonzero;"/><path d="M20.739,9.074c-3.09,0 -5.025,1.673 -5.383,2.846l0,-2.682l-6.059,0c0.079,1.424 0,17.087 0,17.087l6.059,0l0,-9.246c0,-0.514 -0.025,-1.028 0.131,-1.397c0.417,-1.027 1.312,-2.094 2.921,-2.094c2.103,0 3.06,1.581 3.06,3.895l0,8.842l6.114,0l0,-9.501c0,-5.292 -3.011,-7.75 -6.843,-7.75" style="fill:#fff;fill-rule:nonzero;"/><path d="M3.209,1.172c-1.991,0 -3.294,1.279 -3.294,2.967c0,1.656 1.265,2.962 3.217,2.962l0.039,0c2.028,0 3.29,-1.311 3.29,-2.967c-0.039,-1.686 -1.262,-2.962 -3.252,-2.962" style="fill:#fff;fill-rule:nonzero;"/></svg>