<?xml version="1.0" encoding="UTF-8" standalone="no"?><!DOCTYPE svg PUBLIC "-//W3C//DTD SVG 1.1//EN" "http://www.w3.org/Graphics/SVG/1.1/DTD/svg11.dtd"><svg width="100%" height="100%" viewBox="0 0 28 28" version="1.1" xmlns="http://www.w3.org/2000/svg" xmlns:xlink="http://www.w3.org/1999/xlink" xml:space="preserve" style="fill-rule:evenodd;clip-rule:evenodd;stroke-linejoin:round;stroke-miterlimit:1.41421;"><path d="M24.919,24.06c0,0.474 -0.384,0.86 -0.859,0.86l-20.623,0c-0.474,0 -0.859,-0.386 -0.859,-0.86l0,-12.889l3.437,0c-0.448,0.644 -0.599,1.846 -0.599,2.61c0,4.601 3.753,8.345 8.364,8.345c4.613,0 8.366,-3.744 8.366,-8.345c0,-0.764 -0.109,-1.947 -0.664,-2.61l3.437,0l0,12.889Zm-11.139,-15.555c2.921,0 5.289,2.363 5.289,5.276c0,2.913 -2.368,5.275 -5.289,5.275c-2.919,0 -5.287,-2.362 -5.287,-5.275c0,-2.913 2.368,-5.276 5.287,-5.276m5.984,-4.209c0,-0.474 0.385,-0.859 0.859,-0.859l2.578,0c0.474,0 0.859,0.385 0.859,0.859l0,2.579c0,0.474 -0.385,0.858 -0.859,0.858l-2.578,0c-0.474,0 -0.859,-0.384 -0.859,-0.858l0,-2.579Zm4.465,-4.296l-20.961,0c-1.805,0 -3.268,1.46 -3.268,3.261l0,20.975c0,1.801 1.463,3.261 3.268,3.261l20.961,0c1.805,0 3.268,-1.46 3.268,-3.261l0,-20.975c0,-1.801 -1.463,-3.261 -3.268,-3.261" style="fill:#fff;fill-rule:nonzero;"/></svg>