<?xml version="1.0" encoding="UTF-8" standalone="no"?>
<!DOCTYPE svg PUBLIC "-//W3C//DTD SVG 1.1//EN" "http://www.w3.org/Graphics/SVG/1.1/DTD/svg11.dtd">
<svg width="100%" height="100%" viewBox="0 0 2162 1160" version="1.1" xmlns="http://www.w3.org/2000/svg" xmlns:xlink="http://www.w3.org/1999/xlink" xml:space="preserve" style="fill-rule:evenodd;clip-rule:evenodd;stroke-linejoin:round;stroke-miterlimit:1.41421;">
    <g id="ipad" transform="matrix(7.11132e-17,-1.16137,1.16633,7.14171e-17,421.685,1730.46)">
        <g transform="matrix(5.27244e-17,0.85739,-0.861054,5.25e-17,1492.62,-349.866)">
            <path d="M405.836,10.557L489.655,10.557L489.655,7.982L507.314,7.982L507.314,10.557L559.802,10.557L559.802,7.982L595.929,7.982L595.929,10.557L617.207,10.557L617.207,7.982L653.335,7.982L653.335,10.557L1733.48,10.557C1774.88,10.557 1805.78,43.302 1805.78,84.523L1805.78,1083.81C1805.78,1125.03 1774.88,1157.78 1733.48,1157.78L405.836,1157.78C364.438,1157.78 331.543,1125.03 331.543,1083.81L331.543,188.094L329.789,188.094C328.853,188.094 328.1,187.385 328.1,186.504L328.1,129.292C328.1,128.411 328.853,127.703 329.789,127.703L331.543,127.703L331.543,84.523C331.543,43.302 364.438,10.557 405.836,10.557ZM1729.33,15.132L407.366,15.132C367.971,15.132 336.257,46.711 336.257,85.939L336.257,1082.39C336.257,1121.62 367.971,1153.2 407.366,1153.2L1729.33,1153.2C1768.72,1153.2 1800.44,1121.62 1800.44,1082.39L1800.44,85.939C1800.44,46.711 1768.72,15.132 1729.33,15.132ZM1667.88,133.65L1668.75,134.228L1669.33,135.093L1669.53,136.113L1669.53,1028.04C1669.33,1029.06 1669.32,1029.07 1668.75,1029.93L1667.88,1030.51L1666.86,1030.71L472.542,1030.71C471.528,1030.51 471.515,1030.5 470.656,1029.93L470.078,1029.06L469.875,1028.04L469.875,136.113L470.078,135.093L470.656,134.228L471.521,133.65L472.542,133.447L1666.86,133.447C1667.2,133.514 1667.54,133.582 1667.88,133.65ZM1664.2,138.78L475.208,138.78L475.208,1025.38L1664.2,1025.38L1664.2,138.78ZM1742.22,549.894C1743.79,549.909 1745.35,550.027 1746.91,550.264C1749.78,550.704 1752.6,551.539 1755.25,552.738C1758.43,554.178 1761.37,556.14 1763.93,558.52C1766.57,560.983 1768.8,563.889 1770.49,567.086C1771.93,569.819 1772.98,572.76 1773.58,575.792C1774.27,579.27 1774.38,582.862 1773.91,586.376C1773.47,589.655 1772.52,592.862 1771.1,595.85C1769.47,599.295 1767.21,602.44 1764.49,605.103C1761.62,607.906 1758.23,610.168 1754.53,611.732C1752.52,612.581 1750.43,613.225 1748.29,613.648C1746.29,614.045 1744.26,614.25 1742.22,614.263C1740.17,614.275 1738.13,614.097 1736.12,613.724C1733.97,613.327 1731.87,612.709 1729.85,611.883C1726.13,610.364 1722.71,608.141 1719.81,605.372C1717.05,602.742 1714.76,599.625 1713.08,596.202C1711.63,593.235 1710.64,590.046 1710.16,586.777C1709.66,583.335 1709.71,579.809 1710.33,576.384C1710.86,573.4 1711.82,570.494 1713.17,567.779C1714.78,564.541 1716.94,561.58 1719.53,559.053C1722.12,556.524 1725.13,554.434 1728.41,552.902C1731.05,551.672 1733.84,550.803 1736.71,550.328C1738.26,550.072 1739.82,549.934 1741.38,549.899C1741.66,549.895 1741.94,549.893 1742.22,549.894ZM1741.83,555.227C1740.52,555.24 1739.21,555.338 1737.91,555.536C1735.52,555.903 1733.17,556.598 1730.97,557.598C1728.26,558.821 1725.76,560.498 1723.6,562.533C1721.53,564.492 1719.76,566.779 1718.39,569.289C1717.14,571.598 1716.23,574.091 1715.7,576.666C1715.1,579.621 1714.99,582.68 1715.39,585.669C1715.76,588.401 1716.55,591.073 1717.73,593.563C1719.1,596.438 1720.98,599.064 1723.25,601.287C1725.65,603.626 1728.48,605.516 1731.56,606.82C1733.24,607.528 1734.98,608.064 1736.76,608.417C1738.43,608.748 1740.13,608.919 1741.83,608.929C1745.36,608.951 1748.88,608.282 1752.15,606.946C1755.25,605.678 1758.1,603.823 1760.53,601.511C1762.83,599.317 1764.74,596.714 1766.14,593.857C1767.35,591.384 1768.17,588.727 1768.57,586.002C1769,583.073 1768.95,580.069 1768.41,577.158C1767.95,574.676 1767.13,572.262 1766,570.009C1764.63,567.313 1762.82,564.854 1760.64,562.756C1758.51,560.695 1756.03,558.99 1753.35,557.733C1751.1,556.685 1748.71,555.953 1746.27,555.562C1745.03,555.365 1743.78,555.26 1742.53,555.232C1742.3,555.228 1742.07,555.226 1741.83,555.227Z" style="fill:rgb(57,58,59);"/>
        </g>
        <g transform="matrix(1,0,0,1,-2.58316,6.00173)">
            <g transform="matrix(0.861054,6.16298e-33,6.16298e-33,0.8574,744.699,-73.2689)">
                <path d="M324.357,73.966L253.86,73.966C251.821,73.966 250.105,72.242 250.105,70.207L250.105,69.94C250.105,67.903 251.821,66.177 253.86,66.177L324.357,66.177C326.39,66.177 328.115,67.903 328.115,69.94L328.115,70.207C328.115,72.244 326.391,73.966 324.357,73.966ZM284.149,37.542C284.149,40.717 286.724,43.295 289.9,43.295C293.077,43.295 295.655,40.717 295.655,37.542C295.655,34.363 293.077,31.788 289.9,31.788C286.724,31.788 284.149,34.361 284.149,37.542Z" style="fill:rgb(51,51,51);"/>
            </g>
            <g transform="matrix(0.861054,6.16298e-33,1.2326e-32,0.8574,744.699,-73.2689)">
                <path d="M203.349,70.885C203.349,75.226 206.872,78.751 211.217,78.751C215.554,78.751 219.081,75.226 219.081,70.885C219.081,66.537 215.554,63.017 211.217,63.017C206.872,63.017 203.349,66.537 203.349,70.885Z" style="fill:rgb(51,51,51);"/>
            </g>
        </g>
    </g>
</svg>
