<?xml version="1.0" encoding="UTF-8" standalone="no"?>
<!DOCTYPE svg PUBLIC "-//W3C//DTD SVG 1.1//EN" "http://www.w3.org/Graphics/SVG/1.1/DTD/svg11.dtd">
<svg width="100%" height="100%" viewBox="0 0 2162 1160" version="1.1" xmlns="http://www.w3.org/2000/svg" xmlns:xlink="http://www.w3.org/1999/xlink" xml:space="preserve" style="fill-rule:evenodd;clip-rule:evenodd;stroke-linejoin:round;stroke-miterlimit:1.41421;">
    <g transform="matrix(1,0,0,1,791.864,1.96494)">
        <g>
            <path d="M492.983,1155.79L81.422,1155.79C39.723,1155.79 5.605,1121.67 5.605,1079.97L5.605,380.924L3.105,380.924C1.728,380.924 0.6,379.793 0.6,378.418L0.603,313.275C0.603,311.899 1.731,310.767 3.105,310.767L5.605,310.767L5.605,289.635L3.105,289.635C1.728,289.635 0.6,288.504 0.6,287.13L0.603,221.987C0.603,220.611 1.731,219.478 3.105,219.478L5.605,219.478L5.605,168.8L0.6,168.8L0.6,129.9L5.605,129.9L5.605,75.817C5.605,34.118 39.723,0 81.422,0L495.081,0C536.78,0 570.826,34.118 570.74,75.817L570.488,217.796L576.8,217.796L576.8,288.796L570.362,288.796L568.959,1079.97C568.873,1121.67 534.684,1155.79 492.983,1155.79ZM496.009,4.805L80.95,4.805C42.732,4.806 11.638,35.899 11.638,74.117L11.638,1081.67C11.638,1119.89 42.732,1150.98 80.95,1150.98L493.904,1150.98C532.133,1150.98 563.295,1119.88 563.375,1081.66L565.162,74.103C565.202,55.675 558.004,38.296 544.902,25.166C531.801,12.036 514.436,4.806 496.009,4.805ZM18,1081.67L18,74.117C18,50.419 32.132,29.34 49.734,16.061C29.083,27.208 15.019,49.048 15.019,74.117L15.019,1081.67C15.019,1106.74 29.084,1128.58 49.734,1139.73C32.132,1126.45 18,1105.37 18,1081.67ZM558.5,1081.67L558.5,74.117C558.5,50.419 544.353,29.34 526.751,16.061C547.401,27.208 561.466,49.05 561.466,74.117L561.466,1081.67C561.466,1106.74 547.401,1128.58 526.751,1139.73C544.353,1126.45 558.5,1105.37 558.5,1081.67ZM260.619,1115.99C253.469,1108.84 249.049,1098.98 249.049,1088.07C249.049,1066.25 266.727,1048.57 288.546,1048.57C299.446,1048.57 309.321,1052.99 316.465,1060.14L316.465,1060.14L316.467,1060.14L316.467,1060.14C323.619,1067.29 328.039,1077.16 328.039,1088.07C328.039,1109.87 310.354,1127.56 288.546,1127.56C277.636,1127.56 267.768,1123.14 260.62,1116L260.62,1116L260.62,1116L260.619,1115.99L260.619,1115.99ZM254.431,1088.07C254.431,1106.87 269.735,1122.18 288.543,1122.18C307.353,1122.18 322.656,1106.87 322.656,1088.07C322.656,1069.26 307.355,1053.95 288.543,1053.95C269.735,1053.95 254.431,1069.26 254.431,1088.07ZM541.65,128.778C541.947,128.789 542.238,128.843 542.515,128.952C543.183,129.216 543.72,129.765 543.966,130.44C544.061,130.7 544.108,130.971 544.119,131.247C547.878,429.175 547.882,727.174 544.119,1025.1C544.108,1025.38 544.061,1025.65 543.966,1025.91C543.72,1026.58 543.183,1027.13 542.515,1027.4C542.238,1027.51 541.947,1027.56 541.65,1027.57C374.039,1029.69 206.388,1029.7 38.777,1027.57C38.501,1027.56 38.23,1027.52 37.971,1027.42C37.296,1027.17 36.746,1026.64 36.482,1025.97C36.373,1025.69 36.318,1025.4 36.307,1025.1C32.533,727.176 32.537,429.176 36.307,131.247C36.318,130.95 36.373,130.659 36.482,130.382C36.746,129.714 37.296,129.177 37.971,128.93C38.23,128.835 38.501,128.788 38.777,128.778C206.388,126.657 374.039,126.662 541.65,128.778ZM538.786,134.11L41.64,134.11L41.64,1022.24L538.786,1022.24L538.786,134.11ZM203.349,70.885C203.349,75.226 206.872,78.751 211.217,78.751C215.554,78.751 219.081,75.226 219.081,70.885C219.081,66.537 215.554,63.017 211.217,63.017C206.872,63.017 203.349,66.537 203.349,70.885ZM324.357,73.966L253.86,73.966C251.821,73.966 250.105,72.242 250.105,70.207L250.105,69.94C250.105,67.903 251.821,66.177 253.86,66.177L324.357,66.177C326.39,66.177 328.115,67.903 328.115,69.94L328.115,70.207C328.115,72.244 326.391,73.966 324.357,73.966ZM284.149,37.542C284.149,40.717 286.724,43.295 289.9,43.295C293.077,43.295 295.655,40.717 295.655,37.542C295.655,34.363 293.077,31.788 289.9,31.788C286.724,31.788 284.149,34.361 284.149,37.542Z" style="fill:rgb(51,51,51);"/>
        </g>
    </g>
</svg>
