<?xml version="1.0" encoding="UTF-8" standalone="no"?><!DOCTYPE svg PUBLIC "-//W3C//DTD SVG 1.1//EN" "http://www.w3.org/Graphics/SVG/1.1/DTD/svg11.dtd"><svg width="100%" height="100%" viewBox="0 0 31 31" version="1.1" xmlns="http://www.w3.org/2000/svg" xmlns:xlink="http://www.w3.org/1999/xlink" xml:space="preserve" style="fill-rule:evenodd;clip-rule:evenodd;stroke-linejoin:round;stroke-miterlimit:1.41421;"><g><rect x="0" y="2.599" width="21.564" height="12.841" style="fill:#acd8d9;"/><g><path d="M14.074,15.16c0.029,-3.992 3.278,-7.224 7.275,-7.224c4.015,0 7.275,3.261 7.275,7.277c0,4.016 -3.26,7.276 -7.275,7.276c-1.924,0 -3.674,-0.748 -4.975,-1.97l0,7.756l-2.309,0l0,-13.115l0.009,0Zm7.275,-4.892c2.729,0 4.945,2.215 4.945,4.945c0,2.729 -2.216,4.945 -4.945,4.945c-2.729,0 -4.944,-2.216 -4.944,-4.945c0,-2.73 2.215,-4.945 4.944,-4.945Z" style="fill:#444;"/><path d="M12.347,21.737c-0.965,0.484 -2.054,0.752 -3.206,0.752c-4.015,0 -7.275,-3.26 -7.275,-7.276c0,-4.016 3.26,-7.277 7.275,-7.277c1.694,0 3.254,0.581 4.49,1.56c-0.475,0.63 -0.873,1.323 -1.176,2.056c-0.868,-0.798 -2.035,-1.284 -3.314,-1.284c-2.729,0 -4.944,2.215 -4.944,4.945c0,2.729 2.215,4.945 4.944,4.945c1.224,0 2.344,-0.445 3.206,-1.201l0,2.78Z" style="fill:#444;"/></g></g></svg>