<?xml version="1.0" encoding="UTF-8" standalone="no"?>
<!DOCTYPE svg PUBLIC "-//W3C//DTD SVG 1.1//EN" "http://www.w3.org/Graphics/SVG/1.1/DTD/svg11.dtd">
<svg width="100%" height="100%" viewBox="0 0 75 119" version="1.1" xmlns="http://www.w3.org/2000/svg" xmlns:xlink="http://www.w3.org/1999/xlink" xml:space="preserve" style="fill-rule:evenodd;clip-rule:evenodd;stroke-linecap:round;stroke-linejoin:round;stroke-miterlimit:1.5;">
    <g transform="matrix(1,0,0,1,-1015.01,-361.258)">
        <path d="M1076.07,437.195C1078.48,437.195 1080.68,437.014 1082.13,435.972C1083.58,434.931 1083.51,434.919 1083.62,428.816C1083.75,422.713 1082.33,417.288 1080.9,416.173C1079.48,415.058 1063.19,414.764 1047.19,416.384C1031.19,418.005 1017.71,416.575 1016.45,418.154C1015.18,419.733 1015.56,422.896 1015.56,428.776C1015.55,434.657 1015.83,433.592 1017.65,434.049C1018.03,434.144 1018.64,434.209 1019.38,434.251C1019.38,434.251 1022.14,449.412 1022.69,451.011C1023.24,452.61 1024.13,458.047 1024.13,458.047L1070.29,458.958C1070.29,458.958 1073.44,449.183 1074.26,446.963C1075.08,444.744 1076.07,437.195 1076.07,437.195" style="fill:rgb(243,234,181);stroke:black;stroke-width:1px;"/>
        <path d="M1025.63,417.29C1025.63,417.29 1025.42,413.951 1025.67,413.308C1025.92,412.664 1049.24,412.161 1049.24,412.161C1049.24,412.161 1070.07,410.974 1071.16,411.379C1072.24,411.783 1071.87,415.274 1071.87,415.274C1065.38,415.164 1056.24,415.468 1047.19,416.384C1038.87,417.228 1031.22,417.245 1025.63,417.29" style="fill:rgb(227,142,150);stroke:black;stroke-width:1px;"/>
        <path d="M1069.61,402.199C1071.59,404.561 1071.83,405.978 1071.59,407.044C1071.34,408.182 1071.16,411.379 1071.16,411.379C1070.07,410.974 1049.24,412.161 1049.24,412.161C1049.24,412.161 1033.91,412.492 1027.98,412.96C1027.98,412.96 1027.16,410.576 1026.51,409.282C1025.86,407.989 1024.72,406.634 1025.3,405.273C1025.3,405.273 1016.06,401.821 1016.32,397.265C1016.59,392.71 1022.16,395.35 1022.16,395.35C1022.16,395.35 1023.88,392.11 1026.41,391.751L1023.98,391.536C1023.98,391.536 1020.05,391.731 1019.44,388.534C1018.83,385.338 1023.23,381.841 1023.23,381.841C1023.23,381.841 1021.3,378.625 1022.1,376.517C1022.89,374.408 1026.88,374.605 1026.88,374.605L1030.42,371.281C1030.54,370.532 1030.75,369.813 1031.04,369.135C1034.75,360.493 1039.89,361.655 1041.84,363.437C1043.79,365.219 1045.22,367.469 1045.22,367.469C1045.79,364.922 1046.76,362.861 1048.45,362.075C1052.9,360 1053.82,368.791 1053.82,368.791C1053.82,368.791 1062.11,370.294 1061.11,376.748C1060.11,383.202 1055.07,392.218 1055.07,392.218C1059.14,393.463 1062.36,395.487 1064.75,397.412C1064.75,397.412 1069.51,387.199 1074.39,387.199C1079.26,387.2 1079.97,390.111 1079.97,390.111C1079.97,390.111 1090.44,388.367 1089.26,393.399C1088.07,398.432 1086.47,400.208 1079.82,401.146C1073.17,402.084 1069.61,402.199 1069.61,402.199" style="fill:rgb(200,228,204);stroke:black;stroke-width:1px;"/>
        <g>
            <path d="M1026.07,408.482C1026.07,408.482 1036.49,397.918 1043.26,397.811C1050.03,397.704 1058.25,397.626 1064.79,403.607C1071.32,409.588 1071.3,409.367 1071.3,409.367C1071.38,408.496 1071.48,407.559 1071.59,407.044C1071.84,405.907 1071.55,404.369 1069.19,401.708C1066.82,399.048 1059.3,390.739 1046.22,391.014C1033.15,391.29 1025.88,403.912 1025.3,405.273C1024.84,406.355 1025.47,407.435 1026.07,408.482" style="fill:rgb(119,173,124);stroke:black;stroke-width:1px;"/>
            <path d="M1030.22,393.654C1029.02,392.562 1027.58,391.584 1026.41,391.751C1023.88,392.11 1022.16,395.35 1022.16,395.35C1022.16,395.35 1016.59,392.71 1016.32,397.265C1016.06,401.821 1025.04,405.386 1025.04,405.386C1025.04,405.386 1021.16,400.852 1021.89,399.618C1022.63,398.383 1024.05,398.18 1024.05,398.18C1024.05,398.18 1023.72,396.622 1025.35,395.474C1026.98,394.326 1030.22,393.654 1030.22,393.654" style="fill:rgb(119,173,124);stroke:black;stroke-width:1px;"/>
            <path d="M1030.58,376.698C1030.22,374.752 1030.12,372.841 1030.45,371.101L1026.88,374.605C1026.88,374.605 1022.89,374.408 1022.1,376.517C1021.3,378.625 1023.23,381.841 1023.23,381.841C1023.23,381.841 1018.83,385.338 1019.44,388.534C1020.05,391.731 1023.98,391.536 1023.98,391.536L1025.86,391.536C1025.86,391.536 1024.19,387.358 1024.86,385.529C1025.53,383.7 1029.28,380.327 1029.28,380.327L1026.98,379.93C1026.98,379.93 1027.35,378.017 1028.42,377.457C1029.49,376.896 1030.58,376.698 1030.58,376.698" style="fill:rgb(119,173,124);stroke:black;stroke-width:1px;"/>
            <path d="M1044.36,380.42C1044.45,377.108 1044.29,371.616 1045.23,367.44C1045.23,367.44 1043.79,365.219 1041.84,363.437C1039.89,361.655 1034.75,360.493 1031.04,369.135C1029.55,372.594 1030.36,377.119 1031.86,381.302C1031.86,381.302 1031.32,374.632 1033.49,371.649C1035.67,368.666 1038.87,373.993 1040.11,376.107C1041.34,378.22 1044.17,382.509 1044.17,382.509" style="fill:rgb(119,173,124);stroke:black;stroke-width:1px;"/>
            <path d="M1046.74,390.559C1046.74,390.559 1044.22,385.739 1044.36,380.42C1044.45,377.116 1044.29,371.641 1045.22,367.469" style="fill:none;stroke:black;stroke-width:1px;"/>
            <path d="M1037.92,393.07C1037.92,393.07 1028.92,380.083 1030.42,371.281" style="fill:none;stroke:black;stroke-width:1px;"/>
            <path d="M1026.41,391.751C1028.93,391.392 1032.66,396.31 1032.66,396.31" style="fill:none;stroke:black;stroke-width:1px;"/>
            <path d="M1053.82,368.791C1053.82,368.791 1052.9,360 1048.45,362.075C1044,364.149 1044.5,375.1 1044.36,380.42C1044.36,380.42 1044.39,373.952 1047.61,371.398C1050.83,368.844 1053.82,368.791 1053.82,368.791" style="fill:rgb(119,173,124);stroke:black;stroke-width:1px;"/>
            <path d="M1082.95,400.543C1087.03,399.462 1088.29,397.525 1089.26,393.399C1090.44,388.367 1079.97,390.111 1079.97,390.111C1079.97,390.111 1079.26,387.2 1074.39,387.199C1072.37,387.199 1070.4,388.876 1068.78,390.841C1068.78,390.841 1072.89,389.386 1075.62,390.155C1078.35,390.924 1078.32,392.35 1078.32,392.35C1078.32,392.35 1084.59,390.842 1085.59,393.081C1086.6,395.32 1082.95,400.543 1082.95,400.543" style="fill:rgb(119,173,124);stroke:black;stroke-width:1px;"/>
        </g>
        <path d="M1026.63,434.254C1026.63,434.254 1022.15,434.411 1019.38,434.251" style="fill:none;stroke:black;stroke-width:1px;"/>
        <path d="M1076.07,437.195C1073.66,437.195 1070.51,437.019 1070.51,437.019" style="fill:none;stroke:black;stroke-width:1px;"/>
        <path d="M1074.26,446.963L1068.17,455.703L1061.68,444.102L1054.41,455.084L1049.21,444.091L1041.33,455.25L1034.82,444.487L1027.68,455.47L1022.69,451.011C1023.24,452.61 1024.13,458.047 1024.13,458.047L1070.29,458.958C1070.29,458.958 1073.44,449.183 1074.26,446.963" style="fill:rgb(11,35,76);stroke:black;stroke-width:1px;"/>
        <path d="M1070.29,458.958C1070.29,458.958 1067.34,468.068 1065.6,473.014C1063.87,477.96 1059.28,479.715 1047.86,479.407C1036.44,479.099 1029.65,475.624 1028.24,473.727C1026.84,471.83 1024.13,458.047 1024.13,458.047L1070.29,458.958" style="fill:rgb(142,195,197);stroke:black;stroke-width:1px;"/>
    </g>
</svg>
