<?xml version="1.0" encoding="UTF-8" standalone="no"?>
<!DOCTYPE svg PUBLIC "-//W3C//DTD SVG 1.1//EN" "http://www.w3.org/Graphics/SVG/1.1/DTD/svg11.dtd">
<svg width="100%" height="100%" viewBox="0 0 2162 1160" version="1.1" xmlns="http://www.w3.org/2000/svg" xmlns:xlink="http://www.w3.org/1999/xlink" xml:space="preserve" style="fill-rule:evenodd;clip-rule:evenodd;stroke-linejoin:round;stroke-miterlimit:1.41421;">
    <g transform="matrix(1,0,0,1,2.5,3.68527)">
        <path d="M2064.13,1156.03L91.533,1156.03C88.473,1155.96 85.416,1155.81 82.365,1155.56C72.541,1154.75 62.795,1153.01 53.283,1150.43C45.665,1148.36 38.19,1145.75 30.957,1142.59C25.45,1140.18 20.079,1137.45 14.928,1134.35C11.04,1132.01 7.273,1129.46 3.71,1126.65C2.845,1125.97 1.994,1125.27 1.154,1124.56L0.931,1124.36L0.711,1124.17L0.711,1124.17C0.612,1124.09 0.513,1124 0.402,1123.91C0.301,1123.82 0.199,1123.73 0.097,1123.64C-0.464,1123.15 -1.021,1122.65 -1.567,1122.15L-1.71,1122.01L-2.294,1121.18L-2.5,1120.19L-2.5,1062.47L-2.31,1061.51L-1.768,1060.7L-0.957,1060.16L0,1059.97L265.823,1059.97C265.818,725.383 264.795,390.795 265.824,56.211C265.832,55.449 265.848,54.688 265.882,53.927C265.948,52.423 266.071,50.921 266.25,49.427C266.775,45.051 267.789,40.735 269.272,36.586C270.761,32.423 272.721,28.431 275.103,24.707C277.65,20.724 280.676,17.051 284.096,13.788C287.263,10.768 290.765,8.1 294.519,5.853C297.906,3.825 301.497,2.14 305.221,0.832C309.265,-0.588 313.463,-1.561 317.719,-2.073C319.213,-2.252 320.715,-2.375 322.219,-2.441C322.98,-2.475 323.741,-2.492 324.503,-2.499C827.141,-4.081 1329.79,-4.081 1832.42,-2.499C1833.19,-2.492 1833.95,-2.475 1834.71,-2.441C1836.21,-2.375 1837.71,-2.252 1839.21,-2.073C1843.58,-1.547 1847.9,-0.532 1852.05,0.953C1856.43,2.524 1860.63,4.618 1864.52,7.177C1868.66,9.903 1872.46,13.154 1875.8,16.828C1878.66,19.983 1881.18,23.447 1883.3,27.143C1885.09,30.259 1886.59,33.538 1887.78,36.927C1889.24,41.089 1890.22,45.415 1890.72,49.798C1890.89,51.296 1891.01,52.8 1891.06,54.306C1891.09,55.067 1891.1,55.828 1891.1,56.59L1891.1,1059.97L2155.97,1059.97L2156.93,1060.16L2157.74,1060.7L2158.28,1061.51L2158.47,1062.47C2158.47,1064.13 2158.47,1065.79 2158.47,1067.45C2158.49,1076.62 2158.55,1085.79 2158.59,1094.96C2158.6,1097.48 2158.61,1100.01 2158.62,1102.53C2158.63,1106.83 2158.63,1111.13 2158.62,1115.44C2158.62,1116.62 2158.61,1117.79 2158.61,1118.97C2158.6,1119.4 2158.68,1120.81 2158.48,1121.44C2158.4,1121.68 2158.29,1121.91 2158.14,1122.12C2157.87,1122.51 2157.47,1122.79 2157.1,1123.07C2156.74,1123.34 2156.39,1123.61 2156.03,1123.88C2155.85,1124.01 2155.68,1124.15 2155.51,1124.28L2155.51,1124.28C2155.37,1124.41 2155.2,1124.51 2155.05,1124.62C2154.58,1124.98 2154.11,1125.32 2153.64,1125.67C2152.37,1126.61 2151.08,1127.53 2149.78,1128.43C2145.41,1131.45 2140.87,1134.24 2136.19,1136.77C2131.54,1139.27 2126.75,1141.5 2121.86,1143.46C2116.01,1145.81 2110.01,1147.78 2103.93,1149.42C2094.12,1152.07 2084.1,1153.86 2074.02,1155.05C2071.12,1155.39 2068.21,1155.68 2065.29,1155.93L2064.76,1155.98L2064.13,1156.03ZM2130.68,1134L1087.62,1134L24.553,1134C28.953,1136.28 33.478,1138.32 38.088,1140.14C44.721,1142.75 51.534,1144.9 58.459,1146.6C66.444,1148.56 74.581,1149.9 82.774,1150.57C85.708,1150.81 88.649,1150.96 91.591,1151.03L153.75,1151.03C149.039,1150.47 145.613,1149.23 145.668,1147.95C145.736,1146.38 151.026,1145.32 157.388,1145.6C163.749,1145.87 168.928,1147.38 168.861,1148.95C168.821,1149.88 166.941,1150.63 164.09,1151.03L766.809,1151.03C762.709,1150.56 759.821,1149.52 759.831,1148.35C759.844,1146.79 765.094,1145.54 771.461,1145.59C777.828,1145.64 783.057,1146.98 783.044,1148.55C783.035,1149.64 780.453,1150.59 776.717,1151.03L1379.97,1151.03C1375.87,1150.56 1372.98,1149.52 1372.99,1148.35C1373.01,1146.79 1378.26,1145.54 1384.62,1145.59C1390.99,1145.64 1396.22,1146.98 1396.21,1148.55C1396.2,1149.64 1393.62,1150.59 1389.88,1151.03L1992.45,1151.03C1989.6,1150.63 1987.72,1149.88 1987.68,1148.95C1987.61,1147.38 1992.79,1145.87 1999.15,1145.6C2005.52,1145.32 2010.81,1146.38 2010.87,1147.95C2010.93,1149.23 2007.5,1150.47 2002.79,1151.03L2063.93,1151.03C2066.44,1150.83 2068.95,1150.59 2071.46,1150.31C2073.73,1150.06 2075.99,1149.78 2078.24,1149.47C2092.49,1147.49 2106.62,1144.2 2119.99,1138.82C2123.62,1137.37 2127.19,1135.76 2130.68,1134ZM2146.26,1124.78L9.518,1124.78C12.574,1127.01 15.759,1129.07 19.031,1130.97L2136.34,1130.97C2138.44,1129.78 2140.5,1128.54 2142.53,1127.24C2143.69,1126.5 2144.84,1125.74 2145.98,1124.97L2146.26,1124.78ZM268.323,1064.97L2.5,1064.97L2.5,1119.09C2.697,1119.27 2.897,1119.44 3.097,1119.62L3.279,1119.78L2153.16,1119.78L2153.54,1119.49L2153.6,1119.45C2153.64,1112.56 2153.63,1105.66 2153.61,1098.77C2153.57,1090.08 2153.52,1081.38 2153.49,1072.68C2153.48,1070.38 2153.47,1068.07 2153.47,1065.77L2153.47,1064.97L1888.61,1064.97L1888.6,1064.97L1224.64,1064.97C1224.64,1066.59 1224.65,1068.2 1224.63,1069.82C1224.62,1070.77 1224.56,1071.71 1224.44,1072.65C1224.21,1074.43 1223.8,1076.18 1223.19,1077.87C1222.15,1080.78 1220.56,1083.49 1218.53,1085.82C1217.13,1087.42 1215.52,1088.84 1213.76,1090.03C1212.02,1091.2 1210.13,1092.16 1208.15,1092.85C1206.5,1093.43 1204.8,1093.83 1203.07,1094.05C1202.13,1094.17 1201.18,1094.23 1200.24,1094.25C1116.61,1095.1 1032.97,1095.1 949.347,1094.25C948.348,1094.23 947.351,1094.16 946.36,1094.03C944.635,1093.8 942.933,1093.39 941.295,1092.8C937.966,1091.61 934.91,1089.69 932.382,1087.22C929.712,1084.61 927.648,1081.39 926.391,1077.87C925.753,1076.09 925.323,1074.23 925.108,1072.34C925.001,1071.4 924.951,1070.45 924.948,1069.5L924.948,1064.97L268.323,1064.97L268.323,1064.97ZM2048.08,1095.14L1980.52,1095.14L1980.52,1088.58L2048.08,1088.58L2048.08,1095.14ZM1219.64,1064.97L929.948,1064.97C929.948,1066.57 929.935,1068.16 929.95,1069.76C929.953,1069.97 929.959,1070.18 929.968,1070.39C930.001,1071.11 930.068,1071.82 930.175,1072.52C930.395,1073.97 930.776,1075.39 931.311,1076.76C932.326,1079.34 933.893,1081.7 935.878,1083.64C937.893,1085.61 940.329,1087.14 942.983,1088.1C944.367,1088.59 945.807,1088.93 947.267,1089.11C948.021,1089.2 948.779,1089.24 949.539,1089.25C1033.08,1089.46 1116.63,1090.1 1200.17,1089.25C1200.97,1089.24 1201.77,1089.18 1202.57,1089.08C1203.94,1088.89 1205.3,1088.56 1206.6,1088.1C1209.4,1087.09 1211.96,1085.44 1214.04,1083.31C1216.01,1081.29 1217.54,1078.85 1218.48,1076.19C1218.97,1074.84 1219.3,1073.44 1219.48,1072.03C1219.58,1071.19 1219.63,1070.34 1219.64,1069.5L1219.64,1064.97ZM1883.85,1059.97L1886.1,1059.97C1886.1,725.393 1887.11,390.816 1886.1,56.243C1886.1,55.544 1886.08,54.846 1886.05,54.147C1885.99,52.655 1885.86,51.165 1885.67,49.682C1885.17,45.684 1884.22,41.744 1882.84,37.958C1881.38,33.956 1879.44,30.129 1877.08,26.583C1874.56,22.801 1871.57,19.341 1868.19,16.305C1865.29,13.699 1862.11,11.408 1858.71,9.486C1855.95,7.922 1853.05,6.602 1850.05,5.55C1846.35,4.25 1842.51,3.359 1838.61,2.892C1837.24,2.727 1835.87,2.615 1834.49,2.554C1833.79,2.523 1833.09,2.508 1832.39,2.501C1329.89,0.92 827.391,2.5 324.89,2.5C324.188,2.502 323.488,2.513 322.787,2.54C321.406,2.592 320.028,2.696 318.655,2.852C314.645,3.308 310.686,4.213 306.878,5.55C303.061,6.89 299.398,8.664 295.978,10.826C292.411,13.08 289.112,15.753 286.165,18.773C283.369,21.639 280.892,24.816 278.796,28.228C276.792,31.491 275.137,34.968 273.87,38.581C272.534,42.391 271.63,46.351 271.175,50.362C271.019,51.735 270.915,53.114 270.863,54.495C270.836,55.196 270.825,55.896 270.823,56.598L270.823,1059.97L273.637,1059.97L277.92,63.766C277.92,27.914 302.074,7.576 334.147,7.576L1824.69,7.576C1857.46,7.577 1879.18,32.838 1879.32,63.766L1883.85,1059.97ZM1813.41,75.921L339.462,75.921L339.462,1000.93L1813.41,1000.93L1813.41,75.921ZM1084.06,39.787C1084.06,39.791 1084.06,39.795 1084.06,39.799C1084.06,43.47 1081.04,46.491 1077.37,46.491C1073.7,46.491 1070.68,43.47 1070.68,39.799C1070.68,39.795 1070.68,39.791 1070.68,39.787C1070.68,39.783 1070.68,39.779 1070.68,39.775C1070.68,36.103 1073.7,33.082 1077.37,33.082C1081.04,33.082 1084.06,36.103 1084.06,39.775C1084.06,39.779 1084.06,39.783 1084.06,39.787ZM1080.34,39.787C1080.34,39.791 1080.34,39.794 1080.34,39.798C1080.34,41.426 1079,42.766 1077.37,42.766C1075.74,42.766 1074.4,41.426 1074.4,39.798C1074.4,39.794 1074.4,39.791 1074.4,39.787C1074.4,39.783 1074.4,39.779 1074.4,39.775C1074.4,38.147 1075.74,36.808 1077.37,36.808C1079,36.808 1080.34,38.147 1080.34,39.775C1080.34,39.779 1080.34,39.783 1080.34,39.787Z" style="fill:rgb(51,51,51);"/>
    </g>
</svg>
