<?xml version="1.0" encoding="UTF-8" standalone="no"?>
<!DOCTYPE svg PUBLIC "-//W3C//DTD SVG 1.1//EN" "http://www.w3.org/Graphics/SVG/1.1/DTD/svg11.dtd">
<svg width="100%" height="100%" viewBox="0 0 164 76" version="1.1" xmlns="http://www.w3.org/2000/svg" xmlns:xlink="http://www.w3.org/1999/xlink" xml:space="preserve" style="fill-rule:evenodd;clip-rule:evenodd;stroke-linejoin:round;stroke-miterlimit:1.41421;">
    <g transform="matrix(1,0,0,1,2.30386,2.83786)">
        <path d="M156.026,7.573L79.082,66.801L3.353,7.826L7.039,3.092L79.103,59.213L152.366,2.819L156.026,7.573Z" style="fill:rgb(51,51,51);"/>
        <path d="M152.641,-1.172L153.12,-1.109L153.588,-0.99L154.039,-0.815L154.464,-0.586L154.859,-0.309L155.218,0.015L155.536,0.379L159.196,5.133L159.467,5.533L159.687,5.962L159.855,6.415L159.966,6.885L160.021,7.365L160.017,7.848L159.954,8.327L159.835,8.795L159.659,9.246L159.431,9.671L159.154,10.067L158.83,10.425L158.466,10.743L81.522,69.971L81.126,70.24L80.7,70.459L80.251,70.626L79.786,70.739L79.31,70.794L78.831,70.793L78.356,70.735L77.891,70.62L77.443,70.45L77.019,70.228L76.624,69.957L0.895,10.982L0.533,10.663L0.211,10.302L-0.064,9.905L-0.29,9.478L-0.462,9.027L-0.579,8.559L-0.639,8.079L-0.64,7.596L-0.584,7.117L-0.469,6.647L-0.299,6.195L-0.076,5.767L0.197,5.369L3.883,0.635L4.202,0.272L4.563,-0.049L4.959,-0.325L5.387,-0.551L5.838,-0.723L6.306,-0.84L6.786,-0.9L7.269,-0.901L7.748,-0.845L8.218,-0.73L8.67,-0.56L9.098,-0.337L9.497,-0.064L79.117,54.154L149.926,-0.351L150.326,-0.622L150.756,-0.842L151.209,-1.01L151.679,-1.121L152.158,-1.176L152.641,-1.172ZM79.103,59.213L7.039,3.092L3.353,7.826L79.082,66.801L156.026,7.573L152.366,2.819L79.103,59.213Z" style="fill:white;"/>
    </g>
</svg>
